<?xml version="1.0" encoding="utf-8" standalone="no"?>
<!DOCTYPE svg PUBLIC "-//W3C//DTD SVG 1.1//EN"
  "http://www.w3.org/Graphics/SVG/1.1/DTD/svg11.dtd">
<svg xmlns:xlink="http://www.w3.org/1999/xlink" width="1008pt" height="720pt" viewBox="0 0 1008 720" xmlns="http://www.w3.org/2000/svg" version="1.1">
 <metadata>
  <rdf:RDF xmlns:dc="http://purl.org/dc/elements/1.1/" xmlns:cc="http://creativecommons.org/ns#" xmlns:rdf="http://www.w3.org/1999/02/22-rdf-syntax-ns#">
   <cc:Work>
    <dc:type rdf:resource="http://purl.org/dc/dcmitype/StillImage"/>
    <dc:date>2025-10-15T03:24:40.339077</dc:date>
    <dc:format>image/svg+xml</dc:format>
    <dc:creator>
     <cc:Agent>
      <dc:title>Matplotlib v3.10.7, https://matplotlib.org/</dc:title>
     </cc:Agent>
    </dc:creator>
   </cc:Work>
  </rdf:RDF>
 </metadata>
 <defs>
  <style type="text/css">*{stroke-linejoin: round; stroke-linecap: butt}</style>
 </defs>
 <g id="figure_1">
  <g id="patch_1">
   <path d="M 0 720 
L 1008 720 
L 1008 0 
L 0 0 
z
" style="fill: #ffffff"/>
  </g>
  <g id="axes_1">
   <g id="patch_2">
    <path d="M 661.093912 207.635762 
L 945.18 207.635762 
L 945.18 28.32 
L 661.093912 28.32 
z
" style="fill: #ffffff"/>
   </g>
   <g id="patch_3">
    <path d="M 764.540136 203.1096 
L 875.33371 203.1096 
Q 881.015432 203.1096 881.015432 199.523285 
L 881.015432 170.1155 
Q 881.015432 166.529185 875.33371 166.529185 
L 764.540136 166.529185 
Q 758.858414 166.529185 758.858414 170.1155 
L 758.858414 199.523285 
Q 758.858414 203.1096 764.540136 203.1096 
z
" clip-path="url(#p456c3ae06b)" style="fill: #2e7d32; opacity: 0.95; stroke: #333333; stroke-linejoin: miter"/>
   </g>
   <g id="patch_4">
    <path d="M 922.453113 196.614439 
L 967.906887 196.614439 
Q 973.588609 196.614439 973.588609 193.028124 
L 973.588609 182.269178 
Q 973.588609 178.682863 967.906887 178.682863 
L 922.453113 178.682863 
Q 916.771391 178.682863 916.771391 182.269178 
L 916.771391 193.028124 
Q 916.771391 196.614439 922.453113 196.614439 
z
" clip-path="url(#p456c3ae06b)" style="fill: #9e9e9e; opacity: 0.95; stroke: #333333; stroke-linejoin: miter"/>
   </g>
   <g id="patch_5">
    <path d="M 434.474537 200.254786 
L 553.790694 200.254786 
Q 559.472416 200.254786 559.472416 196.668471 
L 559.472416 165.108897 
Q 559.472416 161.522582 553.790694 161.522582 
L 434.474537 161.522582 
Q 428.792816 161.522582 428.792816 165.108897 
L 428.792816 196.668471 
Q 428.792816 200.254786 434.474537 200.254786 
z
" clip-path="url(#p456c3ae06b)" style="fill: #d32f2f; opacity: 0.95; stroke: #333333; stroke-linejoin: miter"/>
   </g>
   <g id="patch_6">
    <path d="M 420.868101 158.035859 
L 466.321875 158.035859 
Q 472.003596 158.035859 472.003596 154.449544 
L 472.003596 143.690598 
Q 472.003596 140.104283 466.321875 140.104283 
L 420.868101 140.104283 
Q 415.186379 140.104283 415.186379 143.690598 
L 415.186379 154.449544 
Q 415.186379 158.035859 420.868101 158.035859 
z
" clip-path="url(#p456c3ae06b)" style="fill: #9e9e9e; opacity: 0.95; stroke: #333333; stroke-linejoin: miter"/>
   </g>
   <g id="patch_7">
    <path d="M 584.226504 163.056206 
L 695.020078 163.056206 
Q 700.7018 163.056206 700.7018 159.469891 
L 700.7018 130.062106 
Q 700.7018 126.475791 695.020078 126.475791 
L 584.226504 126.475791 
Q 578.544782 126.475791 578.544782 130.062106 
L 578.544782 159.469891 
Q 578.544782 163.056206 584.226504 163.056206 
z
" clip-path="url(#p456c3ae06b)" style="fill: #2e7d32; opacity: 0.95; stroke: #333333; stroke-linejoin: miter"/>
   </g>
   <g id="patch_8">
    <path d="M 576.472666 66.125882 
L 621.92644 66.125882 
Q 627.608162 66.125882 627.608162 62.539567 
L 627.608162 51.780621 
Q 627.608162 48.194306 621.92644 48.194306 
L 576.472666 48.194306 
Q 570.790944 48.194306 570.790944 51.780621 
L 570.790944 62.539567 
Q 570.790944 66.125882 576.472666 66.125882 
z
" clip-path="url(#p456c3ae06b)" style="fill: #9e9e9e; opacity: 0.95; stroke: #333333; stroke-linejoin: miter"/>
   </g>
   <g id="patch_9">
    <path d="M 516.959251 322.39745 
L 653.320573 322.39745 
Q 659.002295 322.39745 659.002295 318.811135 
L 659.002295 282.947983 
Q 659.002295 279.361667 653.320573 279.361667 
L 516.959251 279.361667 
Q 511.277529 279.361667 511.277529 282.947983 
L 511.277529 318.811135 
Q 511.277529 322.39745 516.959251 322.39745 
z
" clip-path="url(#p456c3ae06b)" style="fill: #d32f2f; opacity: 0.95; stroke: #333333; stroke-linejoin: miter"/>
   </g>
   <g id="patch_10">
    <path d="M 570.961395 377.663666 
L 616.415169 377.663666 
Q 622.096891 377.663666 622.096891 374.077351 
L 622.096891 363.318405 
Q 622.096891 359.73209 616.415169 359.73209 
L 570.961395 359.73209 
Q 565.279673 359.73209 565.279673 363.318405 
L 565.279673 374.077351 
Q 565.279673 377.663666 570.961395 377.663666 
z
" clip-path="url(#p456c3ae06b)" style="fill: #9e9e9e; opacity: 0.95; stroke: #333333; stroke-linejoin: miter"/>
   </g>
   <g id="patch_11">
    <path d="M 752.070931 329.382502 
L 845.81934 329.382502 
Q 851.501062 329.382502 851.501062 325.796187 
L 851.501062 300.69198 
Q 851.501062 297.105665 845.81934 297.105665 
L 752.070931 297.105665 
Q 746.389209 297.105665 746.389209 300.69198 
L 746.389209 325.796187 
Q 746.389209 329.382502 752.070931 329.382502 
z
" clip-path="url(#p456c3ae06b)" style="fill: #2e7d32; opacity: 0.95; stroke: #333333; stroke-linejoin: miter"/>
   </g>
   <g id="patch_12">
    <path d="M 857.173249 322.045091 
L 902.627023 322.045091 
Q 908.308744 322.045091 908.308744 318.458776 
L 908.308744 307.69983 
Q 908.308744 304.113515 902.627023 304.113515 
L 857.173249 304.113515 
Q 851.491527 304.113515 851.491527 307.69983 
L 851.491527 318.458776 
Q 851.491527 322.045091 857.173249 322.045091 
z
" clip-path="url(#p456c3ae06b)" style="fill: #9e9e9e; opacity: 0.95; stroke: #333333; stroke-linejoin: miter"/>
   </g>
   <g id="patch_13">
    <path d="M 510.911982 190.94698 
L 638.750722 190.94698 
Q 644.432443 190.94698 644.432443 187.360665 
L 644.432443 153.649302 
Q 644.432443 150.062986 638.750722 150.062986 
L 510.911982 150.062986 
Q 505.23026 150.062986 505.23026 153.649302 
L 505.23026 187.360665 
Q 505.23026 190.94698 510.911982 190.94698 
z
" clip-path="url(#p456c3ae06b)" style="fill: #d32f2f; opacity: 0.95; stroke: #333333; stroke-linejoin: miter"/>
   </g>
   <g id="patch_14">
    <path d="M 536.22787 129.836237 
L 581.681645 129.836237 
Q 587.363366 129.836237 587.363366 126.249922 
L 587.363366 115.490976 
Q 587.363366 111.904661 581.681645 111.904661 
L 536.22787 111.904661 
Q 530.546149 111.904661 530.546149 115.490976 
L 530.546149 126.249922 
Q 530.546149 129.836237 536.22787 129.836237 
z
" clip-path="url(#p456c3ae06b)" style="fill: #9e9e9e; opacity: 0.95; stroke: #333333; stroke-linejoin: miter"/>
   </g>
   <g id="patch_15">
    <path d="M 821.935889 184.86455 
Q 882.559369 186.234042 940.695859 187.547354 
" clip-path="url(#p456c3ae06b)" style="fill: none; opacity: 0.9; stroke: #e65100; stroke-width: 2.225; stroke-linecap: round"/>
    <path d="M 935.951285 185.039561 
L 940.695859 187.547354 
L 935.84288 189.838336 
z
" clip-path="url(#p456c3ae06b)" style="fill: #e65100; opacity: 0.9; stroke: #e65100; stroke-width: 2.225; stroke-linecap: round"/>
   </g>
   <g id="patch_16">
    <path d="M 817.933457 184.795222 
Q 657.03355 182.854024 497.083903 180.92429 
" clip-path="url(#p456c3ae06b)" style="fill: none; opacity: 0.9; stroke: #1976d2; stroke-width: 0.85; stroke-linecap: round"/>
    <path d="M 501.854601 183.382022 
L 497.083903 180.92429 
L 501.912507 178.582371 
z
" clip-path="url(#p456c3ae06b)" style="fill: #1976d2; opacity: 0.9; stroke: #1976d2; stroke-width: 0.85; stroke-linecap: round"/>
   </g>
   <g id="patch_17">
    <path d="M 492.439186 179.822497 
Q 468.862261 164.978407 448.171028 151.951157 
" clip-path="url(#p456c3ae06b)" style="fill: none; opacity: 0.9; stroke: #e65100; stroke-width: 3.05; stroke-linecap: round"/>
    <path d="M 450.954283 156.539566 
L 448.171028 151.951157 
L 453.511708 152.477598 
z
" clip-path="url(#p456c3ae06b)" style="fill: #e65100; opacity: 0.9; stroke: #e65100; stroke-width: 3.05; stroke-linecap: round"/>
   </g>
   <g id="patch_18">
    <path d="M 496.072906 180.406945 
Q 566.877749 162.827392 636.760266 145.476836 
" clip-path="url(#p456c3ae06b)" style="fill: none; opacity: 0.9; stroke: #1976d2; stroke-width: 0.85; stroke-linecap: round"/>
    <path d="M 631.523387 144.304191 
L 636.760266 145.476836 
L 632.680023 148.962752 
z
" clip-path="url(#p456c3ae06b)" style="fill: #1976d2; opacity: 0.9; stroke: #1976d2; stroke-width: 0.85; stroke-linecap: round"/>
   </g>
   <g id="patch_19">
    <path d="M 495.340751 182.481581 
Q 539.636062 240.883855 583.357087 298.528949 
" clip-path="url(#p456c3ae06b)" style="fill: none; opacity: 0.9; stroke: #1976d2; stroke-width: 0.85; stroke-linecap: round"/>
    <path d="M 582.368657 293.254197 
L 583.357087 298.528949 
L 578.544228 296.154842 
z
" clip-path="url(#p456c3ae06b)" style="fill: #1976d2; opacity: 0.9; stroke: #1976d2; stroke-width: 0.85; stroke-linecap: round"/>
   </g>
   <g id="patch_20">
    <path d="M 638.785653 142.950679 
Q 619.4112 100.962565 601.149263 61.385486 
" clip-path="url(#p456c3ae06b)" style="fill: none; opacity: 0.9; stroke: #e65100; stroke-width: 2.375; stroke-linecap: round"/>
    <path d="M 600.981148 66.749415 
L 601.149263 61.385486 
L 605.339537 64.738336 
z
" clip-path="url(#p456c3ae06b)" style="fill: #e65100; opacity: 0.9; stroke: #e65100; stroke-width: 2.375; stroke-linecap: round"/>
   </g>
   <g id="patch_21">
    <path d="M 638.96403 146.655007 
Q 612.381309 222.823618 586.111728 298.094973 
" clip-path="url(#p456c3ae06b)" style="fill: none; opacity: 0.9; stroke: #1976d2; stroke-width: 0.85; stroke-linecap: round"/>
    <path d="M 589.959332 294.353858 
L 586.111728 298.094973 
L 585.427399 292.77222 
z
" clip-path="url(#p456c3ae06b)" style="fill: #1976d2; opacity: 0.9; stroke: #1976d2; stroke-width: 0.85; stroke-linecap: round"/>
   </g>
   <g id="patch_22">
    <path d="M 640.996839 146.218485 
Q 719.282904 229.003656 796.916009 311.098344 
" clip-path="url(#p456c3ae06b)" style="fill: none; opacity: 0.9; stroke: #1976d2; stroke-width: 0.85; stroke-linecap: round"/>
    <path d="M 795.361768 305.961775 
L 796.916009 311.098344 
L 791.87421 309.259796 
z
" clip-path="url(#p456c3ae06b)" style="fill: #1976d2; opacity: 0.9; stroke: #1976d2; stroke-width: 0.85; stroke-linecap: round"/>
   </g>
   <g id="patch_23">
    <path d="M 585.389831 302.862284 
Q 589.414205 334.789574 593.054075 363.666407 
" clip-path="url(#p456c3ae06b)" style="fill: none; opacity: 0.9; stroke: #e65100; stroke-width: 2.75; stroke-linecap: round"/>
    <path d="M 594.834952 358.60395 
L 593.054075 363.666407 
L 590.072635 359.204231 
z
" clip-path="url(#p456c3ae06b)" style="fill: #e65100; opacity: 0.9; stroke: #e65100; stroke-width: 2.75; stroke-linecap: round"/>
   </g>
   <g id="patch_24">
    <path d="M 583.931777 299.286662 
Q 539.636466 240.884388 495.91544 183.239294 
" clip-path="url(#p456c3ae06b)" style="fill: none; opacity: 0.9; stroke: #1976d2; stroke-width: 0.85; stroke-linecap: round"/>
    <path d="M 496.903871 188.514046 
L 495.91544 183.239294 
L 500.7283 185.613401 
z
" clip-path="url(#p456c3ae06b)" style="fill: #1976d2; opacity: 0.9; stroke: #1976d2; stroke-width: 0.85; stroke-linecap: round"/>
   </g>
   <g id="patch_25">
    <path d="M 585.799173 298.990551 
Q 612.381894 222.82194 638.651475 147.550585 
" clip-path="url(#p456c3ae06b)" style="fill: none; opacity: 0.9; stroke: #1976d2; stroke-width: 0.85; stroke-linecap: round"/>
    <path d="M 634.803871 151.2917 
L 638.651475 147.550585 
L 639.335804 152.873337 
z
" clip-path="url(#p456c3ae06b)" style="fill: #1976d2; opacity: 0.9; stroke: #1976d2; stroke-width: 0.85; stroke-linecap: round"/>
   </g>
   <g id="patch_26">
    <path d="M 800.946281 313.240011 
Q 839.423274 313.161692 875.300843 313.088665 
" clip-path="url(#p456c3ae06b)" style="fill: none; opacity: 0.9; stroke: #e65100; stroke-width: 2.325; stroke-linecap: round"/>
    <path d="M 870.495968 310.69844 
L 875.300843 313.088665 
L 870.505738 315.49843 
z
" clip-path="url(#p456c3ae06b)" style="fill: #e65100; opacity: 0.9; stroke: #e65100; stroke-width: 2.325; stroke-linecap: round"/>
   </g>
   <g id="patch_27">
    <path d="M 796.945279 313.128431 
Q 692.039634 307.061654 588.082734 301.049745 
" clip-path="url(#p456c3ae06b)" style="fill: none; opacity: 0.9; stroke: #1976d2; stroke-width: 0.85; stroke-linecap: round"/>
    <path d="M 592.736165 303.722866 
L 588.082734 301.049745 
L 593.01329 298.930873 
z
" clip-path="url(#p456c3ae06b)" style="fill: #1976d2; opacity: 0.9; stroke: #1976d2; stroke-width: 0.85; stroke-linecap: round"/>
   </g>
   <g id="patch_28">
    <path d="M 574.221832 168.599458 
Q 566.892536 145.686096 560.53402 125.80765 
" clip-path="url(#p456c3ae06b)" style="fill: none; opacity: 0.9; stroke: #e65100; stroke-width: 2.85; stroke-linecap: round"/>
    <path d="M 559.710499 131.110651 
L 560.53402 125.80765 
L 564.282308 129.648267 
z
" clip-path="url(#p456c3ae06b)" style="fill: #e65100; opacity: 0.9; stroke: #e65100; stroke-width: 2.85; stroke-linecap: round"/>
   </g>
   <g id="patch_29">
    <path d="M 574.988962 172.49832 
Q 579.985598 235.691838 584.907325 297.937984 
" clip-path="url(#p456c3ae06b)" style="fill: none; opacity: 0.9; stroke: #1976d2; stroke-width: 0.85; stroke-linecap: round"/>
    <path d="M 586.921508 292.963743 
L 584.907325 297.937984 
L 582.136443 293.342093 
z
" clip-path="url(#p456c3ae06b)" style="fill: #1976d2; opacity: 0.9; stroke: #1976d2; stroke-width: 0.85; stroke-linecap: round"/>
   </g>
   <g id="matplotlib.axis_1"/>
   <g id="matplotlib.axis_2"/>
   <g id="patch_30">
    <path d="M 661.093912 207.635762 
L 661.093912 28.32 
" style="fill: none; stroke: #000000; stroke-width: 0.8; stroke-linejoin: miter; stroke-linecap: square"/>
   </g>
   <g id="patch_31">
    <path d="M 945.18 207.635762 
L 945.18 28.32 
" style="fill: none; stroke: #000000; stroke-width: 0.8; stroke-linejoin: miter; stroke-linecap: square"/>
   </g>
   <g id="patch_32">
    <path d="M 661.093912 207.635762 
L 945.18 207.635762 
" style="fill: none; stroke: #000000; stroke-width: 0.8; stroke-linejoin: miter; stroke-linecap: square"/>
   </g>
   <g id="patch_33">
    <path d="M 661.093912 28.32 
L 945.18 28.32 
" style="fill: none; stroke: #000000; stroke-width: 0.8; stroke-linejoin: miter; stroke-linecap: square"/>
   </g>
   <g id="text_1">
    <!-- internet_gateway  203.0.113.1 -->
    <g transform="translate(758.296298 186.915643) scale(0.08 -0.08)">
     <defs>
      <path id="DejaVuSans-69" d="M 603 3500 
L 1178 3500 
L 1178 0 
L 603 0 
L 603 3500 
z
M 603 4863 
L 1178 4863 
L 1178 4134 
L 603 4134 
L 603 4863 
z
" transform="scale(0.015625)"/>
      <path id="DejaVuSans-6e" d="M 3513 2113 
L 3513 0 
L 2938 0 
L 2938 2094 
Q 2938 2591 2744 2837 
Q 2550 3084 2163 3084 
Q 1697 3084 1428 2787 
Q 1159 2491 1159 1978 
L 1159 0 
L 581 0 
L 581 3500 
L 1159 3500 
L 1159 2956 
Q 1366 3272 1645 3428 
Q 1925 3584 2291 3584 
Q 2894 3584 3203 3211 
Q 3513 2838 3513 2113 
z
" transform="scale(0.015625)"/>
      <path id="DejaVuSans-74" d="M 1172 4494 
L 1172 3500 
L 2356 3500 
L 2356 3053 
L 1172 3053 
L 1172 1153 
Q 1172 725 1289 603 
Q 1406 481 1766 481 
L 2356 481 
L 2356 0 
L 1766 0 
Q 1100 0 847 248 
Q 594 497 594 1153 
L 594 3053 
L 172 3053 
L 172 3500 
L 594 3500 
L 594 4494 
L 1172 4494 
z
" transform="scale(0.015625)"/>
      <path id="DejaVuSans-65" d="M 3597 1894 
L 3597 1613 
L 953 1613 
Q 991 1019 1311 708 
Q 1631 397 2203 397 
Q 2534 397 2845 478 
Q 3156 559 3463 722 
L 3463 178 
Q 3153 47 2828 -22 
Q 2503 -91 2169 -91 
Q 1331 -91 842 396 
Q 353 884 353 1716 
Q 353 2575 817 3079 
Q 1281 3584 2069 3584 
Q 2775 3584 3186 3129 
Q 3597 2675 3597 1894 
z
M 3022 2063 
Q 3016 2534 2758 2815 
Q 2500 3097 2075 3097 
Q 1594 3097 1305 2825 
Q 1016 2553 972 2059 
L 3022 2063 
z
" transform="scale(0.015625)"/>
      <path id="DejaVuSans-72" d="M 2631 2963 
Q 2534 3019 2420 3045 
Q 2306 3072 2169 3072 
Q 1681 3072 1420 2755 
Q 1159 2438 1159 1844 
L 1159 0 
L 581 0 
L 581 3500 
L 1159 3500 
L 1159 2956 
Q 1341 3275 1631 3429 
Q 1922 3584 2338 3584 
Q 2397 3584 2469 3576 
Q 2541 3569 2628 3553 
L 2631 2963 
z
" transform="scale(0.015625)"/>
      <path id="DejaVuSans-5f" d="M 3263 -1063 
L 3263 -1509 
L -63 -1509 
L -63 -1063 
L 3263 -1063 
z
" transform="scale(0.015625)"/>
      <path id="DejaVuSans-67" d="M 2906 1791 
Q 2906 2416 2648 2759 
Q 2391 3103 1925 3103 
Q 1463 3103 1205 2759 
Q 947 2416 947 1791 
Q 947 1169 1205 825 
Q 1463 481 1925 481 
Q 2391 481 2648 825 
Q 2906 1169 2906 1791 
z
M 3481 434 
Q 3481 -459 3084 -895 
Q 2688 -1331 1869 -1331 
Q 1566 -1331 1297 -1286 
Q 1028 -1241 775 -1147 
L 775 -588 
Q 1028 -725 1275 -790 
Q 1522 -856 1778 -856 
Q 2344 -856 2625 -561 
Q 2906 -266 2906 331 
L 2906 616 
Q 2728 306 2450 153 
Q 2172 0 1784 0 
Q 1141 0 747 490 
Q 353 981 353 1791 
Q 353 2603 747 3093 
Q 1141 3584 1784 3584 
Q 2172 3584 2450 3431 
Q 2728 3278 2906 2969 
L 2906 3500 
L 3481 3500 
L 3481 434 
z
" transform="scale(0.015625)"/>
      <path id="DejaVuSans-61" d="M 2194 1759 
Q 1497 1759 1228 1600 
Q 959 1441 959 1056 
Q 959 750 1161 570 
Q 1363 391 1709 391 
Q 2188 391 2477 730 
Q 2766 1069 2766 1631 
L 2766 1759 
L 2194 1759 
z
M 3341 1997 
L 3341 0 
L 2766 0 
L 2766 531 
Q 2569 213 2275 61 
Q 1981 -91 1556 -91 
Q 1019 -91 701 211 
Q 384 513 384 1019 
Q 384 1609 779 1909 
Q 1175 2209 1959 2209 
L 2766 2209 
L 2766 2266 
Q 2766 2663 2505 2880 
Q 2244 3097 1772 3097 
Q 1472 3097 1187 3025 
Q 903 2953 641 2809 
L 641 3341 
Q 956 3463 1253 3523 
Q 1550 3584 1831 3584 
Q 2591 3584 2966 3190 
Q 3341 2797 3341 1997 
z
" transform="scale(0.015625)"/>
      <path id="DejaVuSans-77" d="M 269 3500 
L 844 3500 
L 1563 769 
L 2278 3500 
L 2956 3500 
L 3675 769 
L 4391 3500 
L 4966 3500 
L 4050 0 
L 3372 0 
L 2619 2869 
L 1863 0 
L 1184 0 
L 269 3500 
z
" transform="scale(0.015625)"/>
      <path id="DejaVuSans-79" d="M 2059 -325 
Q 1816 -950 1584 -1140 
Q 1353 -1331 966 -1331 
L 506 -1331 
L 506 -850 
L 844 -850 
Q 1081 -850 1212 -737 
Q 1344 -625 1503 -206 
L 1606 56 
L 191 3500 
L 800 3500 
L 1894 763 
L 2988 3500 
L 3597 3500 
L 2059 -325 
z
" transform="scale(0.015625)"/>
      <path id="DejaVuSans-20" transform="scale(0.015625)"/>
      <path id="DejaVuSans-32" d="M 1228 531 
L 3431 531 
L 3431 0 
L 469 0 
L 469 531 
Q 828 903 1448 1529 
Q 2069 2156 2228 2338 
Q 2531 2678 2651 2914 
Q 2772 3150 2772 3378 
Q 2772 3750 2511 3984 
Q 2250 4219 1831 4219 
Q 1534 4219 1204 4116 
Q 875 4013 500 3803 
L 500 4441 
Q 881 4594 1212 4672 
Q 1544 4750 1819 4750 
Q 2544 4750 2975 4387 
Q 3406 4025 3406 3419 
Q 3406 3131 3298 2873 
Q 3191 2616 2906 2266 
Q 2828 2175 2409 1742 
Q 1991 1309 1228 531 
z
" transform="scale(0.015625)"/>
      <path id="DejaVuSans-30" d="M 2034 4250 
Q 1547 4250 1301 3770 
Q 1056 3291 1056 2328 
Q 1056 1369 1301 889 
Q 1547 409 2034 409 
Q 2525 409 2770 889 
Q 3016 1369 3016 2328 
Q 3016 3291 2770 3770 
Q 2525 4250 2034 4250 
z
M 2034 4750 
Q 2819 4750 3233 4129 
Q 3647 3509 3647 2328 
Q 3647 1150 3233 529 
Q 2819 -91 2034 -91 
Q 1250 -91 836 529 
Q 422 1150 422 2328 
Q 422 3509 836 4129 
Q 1250 4750 2034 4750 
z
" transform="scale(0.015625)"/>
      <path id="DejaVuSans-33" d="M 2597 2516 
Q 3050 2419 3304 2112 
Q 3559 1806 3559 1356 
Q 3559 666 3084 287 
Q 2609 -91 1734 -91 
Q 1441 -91 1130 -33 
Q 819 25 488 141 
L 488 750 
Q 750 597 1062 519 
Q 1375 441 1716 441 
Q 2309 441 2620 675 
Q 2931 909 2931 1356 
Q 2931 1769 2642 2001 
Q 2353 2234 1838 2234 
L 1294 2234 
L 1294 2753 
L 1863 2753 
Q 2328 2753 2575 2939 
Q 2822 3125 2822 3475 
Q 2822 3834 2567 4026 
Q 2313 4219 1838 4219 
Q 1578 4219 1281 4162 
Q 984 4106 628 3988 
L 628 4550 
Q 988 4650 1302 4700 
Q 1616 4750 1894 4750 
Q 2613 4750 3031 4423 
Q 3450 4097 3450 3541 
Q 3450 3153 3228 2886 
Q 3006 2619 2597 2516 
z
" transform="scale(0.015625)"/>
      <path id="DejaVuSans-2e" d="M 684 794 
L 1344 794 
L 1344 0 
L 684 0 
L 684 794 
z
" transform="scale(0.015625)"/>
      <path id="DejaVuSans-31" d="M 794 531 
L 1825 531 
L 1825 4091 
L 703 3866 
L 703 4441 
L 1819 4666 
L 2450 4666 
L 2450 531 
L 3481 531 
L 3481 0 
L 794 0 
L 794 531 
z
" transform="scale(0.015625)"/>
     </defs>
     <use xlink:href="#DejaVuSans-69"/>
     <use xlink:href="#DejaVuSans-6e" transform="translate(27.783203 0)"/>
     <use xlink:href="#DejaVuSans-74" transform="translate(91.162109 0)"/>
     <use xlink:href="#DejaVuSans-65" transform="translate(130.371094 0)"/>
     <use xlink:href="#DejaVuSans-72" transform="translate(191.894531 0)"/>
     <use xlink:href="#DejaVuSans-6e" transform="translate(231.257812 0)"/>
     <use xlink:href="#DejaVuSans-65" transform="translate(294.636719 0)"/>
     <use xlink:href="#DejaVuSans-74" transform="translate(356.160156 0)"/>
     <use xlink:href="#DejaVuSans-5f" transform="translate(395.369141 0)"/>
     <use xlink:href="#DejaVuSans-67" transform="translate(445.369141 0)"/>
     <use xlink:href="#DejaVuSans-61" transform="translate(508.845703 0)"/>
     <use xlink:href="#DejaVuSans-74" transform="translate(570.125 0)"/>
     <use xlink:href="#DejaVuSans-65" transform="translate(609.333984 0)"/>
     <use xlink:href="#DejaVuSans-77" transform="translate(670.857422 0)"/>
     <use xlink:href="#DejaVuSans-61" transform="translate(752.644531 0)"/>
     <use xlink:href="#DejaVuSans-79" transform="translate(813.923828 0)"/>
     <use xlink:href="#DejaVuSans-20" transform="translate(873.103516 0)"/>
     <use xlink:href="#DejaVuSans-20" transform="translate(904.890625 0)"/>
     <use xlink:href="#DejaVuSans-32" transform="translate(936.677734 0)"/>
     <use xlink:href="#DejaVuSans-30" transform="translate(1000.300781 0)"/>
     <use xlink:href="#DejaVuSans-33" transform="translate(1063.923828 0)"/>
     <use xlink:href="#DejaVuSans-2e" transform="translate(1127.546875 0)"/>
     <use xlink:href="#DejaVuSans-30" transform="translate(1159.333984 0)"/>
     <use xlink:href="#DejaVuSans-2e" transform="translate(1222.957031 0)"/>
     <use xlink:href="#DejaVuSans-31" transform="translate(1254.744141 0)"/>
     <use xlink:href="#DejaVuSans-31" transform="translate(1318.367188 0)"/>
     <use xlink:href="#DejaVuSans-33" transform="translate(1381.990234 0)"/>
     <use xlink:href="#DejaVuSans-2e" transform="translate(1445.613281 0)"/>
     <use xlink:href="#DejaVuSans-31" transform="translate(1477.400391 0)"/>
    </g>
   </g>
   <g id="text_2">
    <!-- CVE-2024-0001  CVSS 6.5 -->
    <g transform="translate(893.09375 189.856151) scale(0.08 -0.08)">
     <defs>
      <path id="DejaVuSans-43" d="M 4122 4306 
L 4122 3641 
Q 3803 3938 3442 4084 
Q 3081 4231 2675 4231 
Q 1875 4231 1450 3742 
Q 1025 3253 1025 2328 
Q 1025 1406 1450 917 
Q 1875 428 2675 428 
Q 3081 428 3442 575 
Q 3803 722 4122 1019 
L 4122 359 
Q 3791 134 3420 21 
Q 3050 -91 2638 -91 
Q 1578 -91 968 557 
Q 359 1206 359 2328 
Q 359 3453 968 4101 
Q 1578 4750 2638 4750 
Q 3056 4750 3426 4639 
Q 3797 4528 4122 4306 
z
" transform="scale(0.015625)"/>
      <path id="DejaVuSans-56" d="M 1831 0 
L 50 4666 
L 709 4666 
L 2188 738 
L 3669 4666 
L 4325 4666 
L 2547 0 
L 1831 0 
z
" transform="scale(0.015625)"/>
      <path id="DejaVuSans-45" d="M 628 4666 
L 3578 4666 
L 3578 4134 
L 1259 4134 
L 1259 2753 
L 3481 2753 
L 3481 2222 
L 1259 2222 
L 1259 531 
L 3634 531 
L 3634 0 
L 628 0 
L 628 4666 
z
" transform="scale(0.015625)"/>
      <path id="DejaVuSans-2d" d="M 313 2009 
L 1997 2009 
L 1997 1497 
L 313 1497 
L 313 2009 
z
" transform="scale(0.015625)"/>
      <path id="DejaVuSans-34" d="M 2419 4116 
L 825 1625 
L 2419 1625 
L 2419 4116 
z
M 2253 4666 
L 3047 4666 
L 3047 1625 
L 3713 1625 
L 3713 1100 
L 3047 1100 
L 3047 0 
L 2419 0 
L 2419 1100 
L 313 1100 
L 313 1709 
L 2253 4666 
z
" transform="scale(0.015625)"/>
      <path id="DejaVuSans-53" d="M 3425 4513 
L 3425 3897 
Q 3066 4069 2747 4153 
Q 2428 4238 2131 4238 
Q 1616 4238 1336 4038 
Q 1056 3838 1056 3469 
Q 1056 3159 1242 3001 
Q 1428 2844 1947 2747 
L 2328 2669 
Q 3034 2534 3370 2195 
Q 3706 1856 3706 1288 
Q 3706 609 3251 259 
Q 2797 -91 1919 -91 
Q 1588 -91 1214 -16 
Q 841 59 441 206 
L 441 856 
Q 825 641 1194 531 
Q 1563 422 1919 422 
Q 2459 422 2753 634 
Q 3047 847 3047 1241 
Q 3047 1584 2836 1778 
Q 2625 1972 2144 2069 
L 1759 2144 
Q 1053 2284 737 2584 
Q 422 2884 422 3419 
Q 422 4038 858 4394 
Q 1294 4750 2059 4750 
Q 2388 4750 2728 4690 
Q 3069 4631 3425 4513 
z
" transform="scale(0.015625)"/>
      <path id="DejaVuSans-36" d="M 2113 2584 
Q 1688 2584 1439 2293 
Q 1191 2003 1191 1497 
Q 1191 994 1439 701 
Q 1688 409 2113 409 
Q 2538 409 2786 701 
Q 3034 994 3034 1497 
Q 3034 2003 2786 2293 
Q 2538 2584 2113 2584 
z
M 3366 4563 
L 3366 3988 
Q 3128 4100 2886 4159 
Q 2644 4219 2406 4219 
Q 1781 4219 1451 3797 
Q 1122 3375 1075 2522 
Q 1259 2794 1537 2939 
Q 1816 3084 2150 3084 
Q 2853 3084 3261 2657 
Q 3669 2231 3669 1497 
Q 3669 778 3244 343 
Q 2819 -91 2113 -91 
Q 1303 -91 875 529 
Q 447 1150 447 2328 
Q 447 3434 972 4092 
Q 1497 4750 2381 4750 
Q 2619 4750 2861 4703 
Q 3103 4656 3366 4563 
z
" transform="scale(0.015625)"/>
      <path id="DejaVuSans-35" d="M 691 4666 
L 3169 4666 
L 3169 4134 
L 1269 4134 
L 1269 2991 
Q 1406 3038 1543 3061 
Q 1681 3084 1819 3084 
Q 2600 3084 3056 2656 
Q 3513 2228 3513 1497 
Q 3513 744 3044 326 
Q 2575 -91 1722 -91 
Q 1428 -91 1123 -41 
Q 819 9 494 109 
L 494 744 
Q 775 591 1075 516 
Q 1375 441 1709 441 
Q 2250 441 2565 725 
Q 2881 1009 2881 1497 
Q 2881 1984 2565 2268 
Q 2250 2553 1709 2553 
Q 1456 2553 1204 2497 
Q 953 2441 691 2322 
L 691 4666 
z
" transform="scale(0.015625)"/>
     </defs>
     <use xlink:href="#DejaVuSans-43"/>
     <use xlink:href="#DejaVuSans-56" transform="translate(69.824219 0)"/>
     <use xlink:href="#DejaVuSans-45" transform="translate(138.232422 0)"/>
     <use xlink:href="#DejaVuSans-2d" transform="translate(201.416016 0)"/>
     <use xlink:href="#DejaVuSans-32" transform="translate(237.5 0)"/>
     <use xlink:href="#DejaVuSans-30" transform="translate(301.123047 0)"/>
     <use xlink:href="#DejaVuSans-32" transform="translate(364.746094 0)"/>
     <use xlink:href="#DejaVuSans-34" transform="translate(428.369141 0)"/>
     <use xlink:href="#DejaVuSans-2d" transform="translate(491.992188 0)"/>
     <use xlink:href="#DejaVuSans-30" transform="translate(528.076172 0)"/>
     <use xlink:href="#DejaVuSans-30" transform="translate(591.699219 0)"/>
     <use xlink:href="#DejaVuSans-30" transform="translate(655.322266 0)"/>
     <use xlink:href="#DejaVuSans-31" transform="translate(718.945312 0)"/>
     <use xlink:href="#DejaVuSans-20" transform="translate(782.568359 0)"/>
     <use xlink:href="#DejaVuSans-20" transform="translate(814.355469 0)"/>
     <use xlink:href="#DejaVuSans-43" transform="translate(846.142578 0)"/>
     <use xlink:href="#DejaVuSans-56" transform="translate(915.966797 0)"/>
     <use xlink:href="#DejaVuSans-53" transform="translate(984.375 0)"/>
     <use xlink:href="#DejaVuSans-53" transform="translate(1047.851562 0)"/>
     <use xlink:href="#DejaVuSans-20" transform="translate(1111.328125 0)"/>
     <use xlink:href="#DejaVuSans-36" transform="translate(1143.115234 0)"/>
     <use xlink:href="#DejaVuSans-2e" transform="translate(1206.738281 0)"/>
     <use xlink:href="#DejaVuSans-35" transform="translate(1238.525391 0)"/>
    </g>
   </g>
   <g id="text_3">
    <!-- web_server  10.0.1.10 -->
    <g style="fill: #ffffff" transform="translate(449.571991 182.984934) scale(0.08 -0.08)">
     <defs>
      <path id="DejaVuSans-62" d="M 3116 1747 
Q 3116 2381 2855 2742 
Q 2594 3103 2138 3103 
Q 1681 3103 1420 2742 
Q 1159 2381 1159 1747 
Q 1159 1113 1420 752 
Q 1681 391 2138 391 
Q 2594 391 2855 752 
Q 3116 1113 3116 1747 
z
M 1159 2969 
Q 1341 3281 1617 3432 
Q 1894 3584 2278 3584 
Q 2916 3584 3314 3078 
Q 3713 2572 3713 1747 
Q 3713 922 3314 415 
Q 2916 -91 2278 -91 
Q 1894 -91 1617 61 
Q 1341 213 1159 525 
L 1159 0 
L 581 0 
L 581 4863 
L 1159 4863 
L 1159 2969 
z
" transform="scale(0.015625)"/>
      <path id="DejaVuSans-73" d="M 2834 3397 
L 2834 2853 
Q 2591 2978 2328 3040 
Q 2066 3103 1784 3103 
Q 1356 3103 1142 2972 
Q 928 2841 928 2578 
Q 928 2378 1081 2264 
Q 1234 2150 1697 2047 
L 1894 2003 
Q 2506 1872 2764 1633 
Q 3022 1394 3022 966 
Q 3022 478 2636 193 
Q 2250 -91 1575 -91 
Q 1294 -91 989 -36 
Q 684 19 347 128 
L 347 722 
Q 666 556 975 473 
Q 1284 391 1588 391 
Q 1994 391 2212 530 
Q 2431 669 2431 922 
Q 2431 1156 2273 1281 
Q 2116 1406 1581 1522 
L 1381 1569 
Q 847 1681 609 1914 
Q 372 2147 372 2553 
Q 372 3047 722 3315 
Q 1072 3584 1716 3584 
Q 2034 3584 2315 3537 
Q 2597 3491 2834 3397 
z
" transform="scale(0.015625)"/>
      <path id="DejaVuSans-76" d="M 191 3500 
L 800 3500 
L 1894 563 
L 2988 3500 
L 3597 3500 
L 2284 0 
L 1503 0 
L 191 3500 
z
" transform="scale(0.015625)"/>
     </defs>
     <use xlink:href="#DejaVuSans-77"/>
     <use xlink:href="#DejaVuSans-65" transform="translate(81.787109 0)"/>
     <use xlink:href="#DejaVuSans-62" transform="translate(143.310547 0)"/>
     <use xlink:href="#DejaVuSans-5f" transform="translate(206.787109 0)"/>
     <use xlink:href="#DejaVuSans-73" transform="translate(256.787109 0)"/>
     <use xlink:href="#DejaVuSans-65" transform="translate(308.886719 0)"/>
     <use xlink:href="#DejaVuSans-72" transform="translate(370.410156 0)"/>
     <use xlink:href="#DejaVuSans-76" transform="translate(411.523438 0)"/>
     <use xlink:href="#DejaVuSans-65" transform="translate(470.703125 0)"/>
     <use xlink:href="#DejaVuSans-72" transform="translate(532.226562 0)"/>
     <use xlink:href="#DejaVuSans-20" transform="translate(573.339844 0)"/>
     <use xlink:href="#DejaVuSans-20" transform="translate(605.126953 0)"/>
     <use xlink:href="#DejaVuSans-31" transform="translate(636.914062 0)"/>
     <use xlink:href="#DejaVuSans-30" transform="translate(700.537109 0)"/>
     <use xlink:href="#DejaVuSans-2e" transform="translate(764.160156 0)"/>
     <use xlink:href="#DejaVuSans-30" transform="translate(795.947266 0)"/>
     <use xlink:href="#DejaVuSans-2e" transform="translate(859.570312 0)"/>
     <use xlink:href="#DejaVuSans-31" transform="translate(891.357422 0)"/>
     <use xlink:href="#DejaVuSans-2e" transform="translate(954.980469 0)"/>
     <use xlink:href="#DejaVuSans-31" transform="translate(986.767578 0)"/>
     <use xlink:href="#DejaVuSans-30" transform="translate(1050.390625 0)"/>
    </g>
   </g>
   <g id="text_4">
    <!-- CVE-2024-1234  CVSS 9.8 -->
    <g transform="translate(391.508738 151.277571) scale(0.08 -0.08)">
     <defs>
      <path id="DejaVuSans-39" d="M 703 97 
L 703 672 
Q 941 559 1184 500 
Q 1428 441 1663 441 
Q 2288 441 2617 861 
Q 2947 1281 2994 2138 
Q 2813 1869 2534 1725 
Q 2256 1581 1919 1581 
Q 1219 1581 811 2004 
Q 403 2428 403 3163 
Q 403 3881 828 4315 
Q 1253 4750 1959 4750 
Q 2769 4750 3195 4129 
Q 3622 3509 3622 2328 
Q 3622 1225 3098 567 
Q 2575 -91 1691 -91 
Q 1453 -91 1209 -44 
Q 966 3 703 97 
z
M 1959 2075 
Q 2384 2075 2632 2365 
Q 2881 2656 2881 3163 
Q 2881 3666 2632 3958 
Q 2384 4250 1959 4250 
Q 1534 4250 1286 3958 
Q 1038 3666 1038 3163 
Q 1038 2656 1286 2365 
Q 1534 2075 1959 2075 
z
" transform="scale(0.015625)"/>
      <path id="DejaVuSans-38" d="M 2034 2216 
Q 1584 2216 1326 1975 
Q 1069 1734 1069 1313 
Q 1069 891 1326 650 
Q 1584 409 2034 409 
Q 2484 409 2743 651 
Q 3003 894 3003 1313 
Q 3003 1734 2745 1975 
Q 2488 2216 2034 2216 
z
M 1403 2484 
Q 997 2584 770 2862 
Q 544 3141 544 3541 
Q 544 4100 942 4425 
Q 1341 4750 2034 4750 
Q 2731 4750 3128 4425 
Q 3525 4100 3525 3541 
Q 3525 3141 3298 2862 
Q 3072 2584 2669 2484 
Q 3125 2378 3379 2068 
Q 3634 1759 3634 1313 
Q 3634 634 3220 271 
Q 2806 -91 2034 -91 
Q 1263 -91 848 271 
Q 434 634 434 1313 
Q 434 1759 690 2068 
Q 947 2378 1403 2484 
z
M 1172 3481 
Q 1172 3119 1398 2916 
Q 1625 2713 2034 2713 
Q 2441 2713 2670 2916 
Q 2900 3119 2900 3481 
Q 2900 3844 2670 4047 
Q 2441 4250 2034 4250 
Q 1625 4250 1398 4047 
Q 1172 3844 1172 3481 
z
" transform="scale(0.015625)"/>
     </defs>
     <use xlink:href="#DejaVuSans-43"/>
     <use xlink:href="#DejaVuSans-56" transform="translate(69.824219 0)"/>
     <use xlink:href="#DejaVuSans-45" transform="translate(138.232422 0)"/>
     <use xlink:href="#DejaVuSans-2d" transform="translate(201.416016 0)"/>
     <use xlink:href="#DejaVuSans-32" transform="translate(237.5 0)"/>
     <use xlink:href="#DejaVuSans-30" transform="translate(301.123047 0)"/>
     <use xlink:href="#DejaVuSans-32" transform="translate(364.746094 0)"/>
     <use xlink:href="#DejaVuSans-34" transform="translate(428.369141 0)"/>
     <use xlink:href="#DejaVuSans-2d" transform="translate(491.992188 0)"/>
     <use xlink:href="#DejaVuSans-31" transform="translate(528.076172 0)"/>
     <use xlink:href="#DejaVuSans-32" transform="translate(591.699219 0)"/>
     <use xlink:href="#DejaVuSans-33" transform="translate(655.322266 0)"/>
     <use xlink:href="#DejaVuSans-34" transform="translate(718.945312 0)"/>
     <use xlink:href="#DejaVuSans-20" transform="translate(782.568359 0)"/>
     <use xlink:href="#DejaVuSans-20" transform="translate(814.355469 0)"/>
     <use xlink:href="#DejaVuSans-43" transform="translate(846.142578 0)"/>
     <use xlink:href="#DejaVuSans-56" transform="translate(915.966797 0)"/>
     <use xlink:href="#DejaVuSans-53" transform="translate(984.375 0)"/>
     <use xlink:href="#DejaVuSans-53" transform="translate(1047.851562 0)"/>
     <use xlink:href="#DejaVuSans-20" transform="translate(1111.328125 0)"/>
     <use xlink:href="#DejaVuSans-39" transform="translate(1143.115234 0)"/>
     <use xlink:href="#DejaVuSans-2e" transform="translate(1206.738281 0)"/>
     <use xlink:href="#DejaVuSans-38" transform="translate(1238.525391 0)"/>
    </g>
   </g>
   <g id="text_5">
    <!-- app_server  10.0.1.20 -->
    <g transform="translate(595.804541 146.791624) scale(0.08 -0.08)">
     <defs>
      <path id="DejaVuSans-70" d="M 1159 525 
L 1159 -1331 
L 581 -1331 
L 581 3500 
L 1159 3500 
L 1159 2969 
Q 1341 3281 1617 3432 
Q 1894 3584 2278 3584 
Q 2916 3584 3314 3078 
Q 3713 2572 3713 1747 
Q 3713 922 3314 415 
Q 2916 -91 2278 -91 
Q 1894 -91 1617 61 
Q 1341 213 1159 525 
z
M 3116 1747 
Q 3116 2381 2855 2742 
Q 2594 3103 2138 3103 
Q 1681 3103 1420 2742 
Q 1159 2381 1159 1747 
Q 1159 1113 1420 752 
Q 1681 391 2138 391 
Q 2594 391 2855 752 
Q 3116 1113 3116 1747 
z
" transform="scale(0.015625)"/>
     </defs>
     <use xlink:href="#DejaVuSans-61"/>
     <use xlink:href="#DejaVuSans-70" transform="translate(61.279297 0)"/>
     <use xlink:href="#DejaVuSans-70" transform="translate(124.755859 0)"/>
     <use xlink:href="#DejaVuSans-5f" transform="translate(188.232422 0)"/>
     <use xlink:href="#DejaVuSans-73" transform="translate(238.232422 0)"/>
     <use xlink:href="#DejaVuSans-65" transform="translate(290.332031 0)"/>
     <use xlink:href="#DejaVuSans-72" transform="translate(351.855469 0)"/>
     <use xlink:href="#DejaVuSans-76" transform="translate(392.96875 0)"/>
     <use xlink:href="#DejaVuSans-65" transform="translate(452.148438 0)"/>
     <use xlink:href="#DejaVuSans-72" transform="translate(513.671875 0)"/>
     <use xlink:href="#DejaVuSans-20" transform="translate(554.785156 0)"/>
     <use xlink:href="#DejaVuSans-20" transform="translate(586.572266 0)"/>
     <use xlink:href="#DejaVuSans-31" transform="translate(618.359375 0)"/>
     <use xlink:href="#DejaVuSans-30" transform="translate(681.982422 0)"/>
     <use xlink:href="#DejaVuSans-2e" transform="translate(745.605469 0)"/>
     <use xlink:href="#DejaVuSans-30" transform="translate(777.392578 0)"/>
     <use xlink:href="#DejaVuSans-2e" transform="translate(841.015625 0)"/>
     <use xlink:href="#DejaVuSans-31" transform="translate(872.802734 0)"/>
     <use xlink:href="#DejaVuSans-2e" transform="translate(936.425781 0)"/>
     <use xlink:href="#DejaVuSans-32" transform="translate(968.212891 0)"/>
     <use xlink:href="#DejaVuSans-30" transform="translate(1031.835938 0)"/>
    </g>
   </g>
   <g id="text_6">
    <!-- CVE-2023-5678  CVSS 7.1 -->
    <g transform="translate(547.113303 59.367594) scale(0.08 -0.08)">
     <defs>
      <path id="DejaVuSans-37" d="M 525 4666 
L 3525 4666 
L 3525 4397 
L 1831 0 
L 1172 0 
L 2766 4134 
L 525 4134 
L 525 4666 
z
" transform="scale(0.015625)"/>
     </defs>
     <use xlink:href="#DejaVuSans-43"/>
     <use xlink:href="#DejaVuSans-56" transform="translate(69.824219 0)"/>
     <use xlink:href="#DejaVuSans-45" transform="translate(138.232422 0)"/>
     <use xlink:href="#DejaVuSans-2d" transform="translate(201.416016 0)"/>
     <use xlink:href="#DejaVuSans-32" transform="translate(237.5 0)"/>
     <use xlink:href="#DejaVuSans-30" transform="translate(301.123047 0)"/>
     <use xlink:href="#DejaVuSans-32" transform="translate(364.746094 0)"/>
     <use xlink:href="#DejaVuSans-33" transform="translate(428.369141 0)"/>
     <use xlink:href="#DejaVuSans-2d" transform="translate(491.992188 0)"/>
     <use xlink:href="#DejaVuSans-35" transform="translate(528.076172 0)"/>
     <use xlink:href="#DejaVuSans-36" transform="translate(591.699219 0)"/>
     <use xlink:href="#DejaVuSans-37" transform="translate(655.322266 0)"/>
     <use xlink:href="#DejaVuSans-38" transform="translate(718.945312 0)"/>
     <use xlink:href="#DejaVuSans-20" transform="translate(782.568359 0)"/>
     <use xlink:href="#DejaVuSans-20" transform="translate(814.355469 0)"/>
     <use xlink:href="#DejaVuSans-43" transform="translate(846.142578 0)"/>
     <use xlink:href="#DejaVuSans-56" transform="translate(915.966797 0)"/>
     <use xlink:href="#DejaVuSans-53" transform="translate(984.375 0)"/>
     <use xlink:href="#DejaVuSans-53" transform="translate(1047.851562 0)"/>
     <use xlink:href="#DejaVuSans-20" transform="translate(1111.328125 0)"/>
     <use xlink:href="#DejaVuSans-37" transform="translate(1143.115234 0)"/>
     <use xlink:href="#DejaVuSans-2e" transform="translate(1206.738281 0)"/>
     <use xlink:href="#DejaVuSans-31" transform="translate(1238.525391 0)"/>
    </g>
   </g>
   <g id="text_7">
    <!-- db_server  10.0.1.30 -->
    <g style="fill: #ffffff" transform="translate(543.772412 302.975809) scale(0.08 -0.08)">
     <defs>
      <path id="DejaVuSans-64" d="M 2906 2969 
L 2906 4863 
L 3481 4863 
L 3481 0 
L 2906 0 
L 2906 525 
Q 2725 213 2448 61 
Q 2172 -91 1784 -91 
Q 1150 -91 751 415 
Q 353 922 353 1747 
Q 353 2572 751 3078 
Q 1150 3584 1784 3584 
Q 2172 3584 2448 3432 
Q 2725 3281 2906 2969 
z
M 947 1747 
Q 947 1113 1208 752 
Q 1469 391 1925 391 
Q 2381 391 2643 752 
Q 2906 1113 2906 1747 
Q 2906 2381 2643 2742 
Q 2381 3103 1925 3103 
Q 1469 3103 1208 2742 
Q 947 2381 947 1747 
z
" transform="scale(0.015625)"/>
     </defs>
     <use xlink:href="#DejaVuSans-64"/>
     <use xlink:href="#DejaVuSans-62" transform="translate(63.476562 0)"/>
     <use xlink:href="#DejaVuSans-5f" transform="translate(126.953125 0)"/>
     <use xlink:href="#DejaVuSans-73" transform="translate(176.953125 0)"/>
     <use xlink:href="#DejaVuSans-65" transform="translate(229.052734 0)"/>
     <use xlink:href="#DejaVuSans-72" transform="translate(290.576172 0)"/>
     <use xlink:href="#DejaVuSans-76" transform="translate(331.689453 0)"/>
     <use xlink:href="#DejaVuSans-65" transform="translate(390.869141 0)"/>
     <use xlink:href="#DejaVuSans-72" transform="translate(452.392578 0)"/>
     <use xlink:href="#DejaVuSans-20" transform="translate(493.505859 0)"/>
     <use xlink:href="#DejaVuSans-20" transform="translate(525.292969 0)"/>
     <use xlink:href="#DejaVuSans-31" transform="translate(557.080078 0)"/>
     <use xlink:href="#DejaVuSans-30" transform="translate(620.703125 0)"/>
     <use xlink:href="#DejaVuSans-2e" transform="translate(684.326172 0)"/>
     <use xlink:href="#DejaVuSans-30" transform="translate(716.113281 0)"/>
     <use xlink:href="#DejaVuSans-2e" transform="translate(779.736328 0)"/>
     <use xlink:href="#DejaVuSans-31" transform="translate(811.523438 0)"/>
     <use xlink:href="#DejaVuSans-2e" transform="translate(875.146484 0)"/>
     <use xlink:href="#DejaVuSans-33" transform="translate(906.933594 0)"/>
     <use xlink:href="#DejaVuSans-30" transform="translate(970.556641 0)"/>
    </g>
   </g>
   <g id="text_8">
    <!-- CVE-2022-9999  CVSS 8.6 -->
    <g transform="translate(541.602032 370.905378) scale(0.08 -0.08)">
     <use xlink:href="#DejaVuSans-43"/>
     <use xlink:href="#DejaVuSans-56" transform="translate(69.824219 0)"/>
     <use xlink:href="#DejaVuSans-45" transform="translate(138.232422 0)"/>
     <use xlink:href="#DejaVuSans-2d" transform="translate(201.416016 0)"/>
     <use xlink:href="#DejaVuSans-32" transform="translate(237.5 0)"/>
     <use xlink:href="#DejaVuSans-30" transform="translate(301.123047 0)"/>
     <use xlink:href="#DejaVuSans-32" transform="translate(364.746094 0)"/>
     <use xlink:href="#DejaVuSans-32" transform="translate(428.369141 0)"/>
     <use xlink:href="#DejaVuSans-2d" transform="translate(491.992188 0)"/>
     <use xlink:href="#DejaVuSans-39" transform="translate(528.076172 0)"/>
     <use xlink:href="#DejaVuSans-39" transform="translate(591.699219 0)"/>
     <use xlink:href="#DejaVuSans-39" transform="translate(655.322266 0)"/>
     <use xlink:href="#DejaVuSans-39" transform="translate(718.945312 0)"/>
     <use xlink:href="#DejaVuSans-20" transform="translate(782.568359 0)"/>
     <use xlink:href="#DejaVuSans-20" transform="translate(814.355469 0)"/>
     <use xlink:href="#DejaVuSans-43" transform="translate(846.142578 0)"/>
     <use xlink:href="#DejaVuSans-56" transform="translate(915.966797 0)"/>
     <use xlink:href="#DejaVuSans-53" transform="translate(984.375 0)"/>
     <use xlink:href="#DejaVuSans-53" transform="translate(1047.851562 0)"/>
     <use xlink:href="#DejaVuSans-20" transform="translate(1111.328125 0)"/>
     <use xlink:href="#DejaVuSans-38" transform="translate(1143.115234 0)"/>
     <use xlink:href="#DejaVuSans-2e" transform="translate(1206.738281 0)"/>
     <use xlink:href="#DejaVuSans-36" transform="translate(1238.525391 0)"/>
    </g>
   </g>
   <g id="text_9">
    <!-- file_server  10.0.2.50 -->
    <g transform="translate(756.56451 315.340334) scale(0.08 -0.08)">
     <defs>
      <path id="DejaVuSans-66" d="M 2375 4863 
L 2375 4384 
L 1825 4384 
Q 1516 4384 1395 4259 
Q 1275 4134 1275 3809 
L 1275 3500 
L 2222 3500 
L 2222 3053 
L 1275 3053 
L 1275 0 
L 697 0 
L 697 3053 
L 147 3053 
L 147 3500 
L 697 3500 
L 697 3744 
Q 697 4328 969 4595 
Q 1241 4863 1831 4863 
L 2375 4863 
z
" transform="scale(0.015625)"/>
      <path id="DejaVuSans-6c" d="M 603 4863 
L 1178 4863 
L 1178 0 
L 603 0 
L 603 4863 
z
" transform="scale(0.015625)"/>
     </defs>
     <use xlink:href="#DejaVuSans-66"/>
     <use xlink:href="#DejaVuSans-69" transform="translate(35.205078 0)"/>
     <use xlink:href="#DejaVuSans-6c" transform="translate(62.988281 0)"/>
     <use xlink:href="#DejaVuSans-65" transform="translate(90.771484 0)"/>
     <use xlink:href="#DejaVuSans-5f" transform="translate(152.294922 0)"/>
     <use xlink:href="#DejaVuSans-73" transform="translate(202.294922 0)"/>
     <use xlink:href="#DejaVuSans-65" transform="translate(254.394531 0)"/>
     <use xlink:href="#DejaVuSans-72" transform="translate(315.917969 0)"/>
     <use xlink:href="#DejaVuSans-76" transform="translate(357.03125 0)"/>
     <use xlink:href="#DejaVuSans-65" transform="translate(416.210938 0)"/>
     <use xlink:href="#DejaVuSans-72" transform="translate(477.734375 0)"/>
     <use xlink:href="#DejaVuSans-20" transform="translate(518.847656 0)"/>
     <use xlink:href="#DejaVuSans-20" transform="translate(550.634766 0)"/>
     <use xlink:href="#DejaVuSans-31" transform="translate(582.421875 0)"/>
     <use xlink:href="#DejaVuSans-30" transform="translate(646.044922 0)"/>
     <use xlink:href="#DejaVuSans-2e" transform="translate(709.667969 0)"/>
     <use xlink:href="#DejaVuSans-30" transform="translate(741.455078 0)"/>
     <use xlink:href="#DejaVuSans-2e" transform="translate(805.078125 0)"/>
     <use xlink:href="#DejaVuSans-32" transform="translate(836.865234 0)"/>
     <use xlink:href="#DejaVuSans-2e" transform="translate(900.488281 0)"/>
     <use xlink:href="#DejaVuSans-35" transform="translate(932.275391 0)"/>
     <use xlink:href="#DejaVuSans-30" transform="translate(995.898438 0)"/>
    </g>
   </g>
   <g id="text_10">
    <!-- CVE-2021-4242  CVSS 6.9 -->
    <g transform="translate(827.813886 315.286803) scale(0.08 -0.08)">
     <use xlink:href="#DejaVuSans-43"/>
     <use xlink:href="#DejaVuSans-56" transform="translate(69.824219 0)"/>
     <use xlink:href="#DejaVuSans-45" transform="translate(138.232422 0)"/>
     <use xlink:href="#DejaVuSans-2d" transform="translate(201.416016 0)"/>
     <use xlink:href="#DejaVuSans-32" transform="translate(237.5 0)"/>
     <use xlink:href="#DejaVuSans-30" transform="translate(301.123047 0)"/>
     <use xlink:href="#DejaVuSans-32" transform="translate(364.746094 0)"/>
     <use xlink:href="#DejaVuSans-31" transform="translate(428.369141 0)"/>
     <use xlink:href="#DejaVuSans-2d" transform="translate(491.992188 0)"/>
     <use xlink:href="#DejaVuSans-34" transform="translate(528.076172 0)"/>
     <use xlink:href="#DejaVuSans-32" transform="translate(591.699219 0)"/>
     <use xlink:href="#DejaVuSans-34" transform="translate(655.322266 0)"/>
     <use xlink:href="#DejaVuSans-32" transform="translate(718.945312 0)"/>
     <use xlink:href="#DejaVuSans-20" transform="translate(782.568359 0)"/>
     <use xlink:href="#DejaVuSans-20" transform="translate(814.355469 0)"/>
     <use xlink:href="#DejaVuSans-43" transform="translate(846.142578 0)"/>
     <use xlink:href="#DejaVuSans-56" transform="translate(915.966797 0)"/>
     <use xlink:href="#DejaVuSans-53" transform="translate(984.375 0)"/>
     <use xlink:href="#DejaVuSans-53" transform="translate(1047.851562 0)"/>
     <use xlink:href="#DejaVuSans-20" transform="translate(1111.328125 0)"/>
     <use xlink:href="#DejaVuSans-36" transform="translate(1143.115234 0)"/>
     <use xlink:href="#DejaVuSans-2e" transform="translate(1206.738281 0)"/>
     <use xlink:href="#DejaVuSans-39" transform="translate(1238.525391 0)"/>
    </g>
   </g>
   <g id="text_11">
    <!-- workstation  10.0.3.10 -->
    <g style="fill: #ffffff" transform="translate(529.760727 172.712483) scale(0.08 -0.08)">
     <defs>
      <path id="DejaVuSans-6f" d="M 1959 3097 
Q 1497 3097 1228 2736 
Q 959 2375 959 1747 
Q 959 1119 1226 758 
Q 1494 397 1959 397 
Q 2419 397 2687 759 
Q 2956 1122 2956 1747 
Q 2956 2369 2687 2733 
Q 2419 3097 1959 3097 
z
M 1959 3584 
Q 2709 3584 3137 3096 
Q 3566 2609 3566 1747 
Q 3566 888 3137 398 
Q 2709 -91 1959 -91 
Q 1206 -91 779 398 
Q 353 888 353 1747 
Q 353 2609 779 3096 
Q 1206 3584 1959 3584 
z
" transform="scale(0.015625)"/>
      <path id="DejaVuSans-6b" d="M 581 4863 
L 1159 4863 
L 1159 1991 
L 2875 3500 
L 3609 3500 
L 1753 1863 
L 3688 0 
L 2938 0 
L 1159 1709 
L 1159 0 
L 581 0 
L 581 4863 
z
" transform="scale(0.015625)"/>
     </defs>
     <use xlink:href="#DejaVuSans-77"/>
     <use xlink:href="#DejaVuSans-6f" transform="translate(81.787109 0)"/>
     <use xlink:href="#DejaVuSans-72" transform="translate(142.96875 0)"/>
     <use xlink:href="#DejaVuSans-6b" transform="translate(184.082031 0)"/>
     <use xlink:href="#DejaVuSans-73" transform="translate(241.992188 0)"/>
     <use xlink:href="#DejaVuSans-74" transform="translate(294.091797 0)"/>
     <use xlink:href="#DejaVuSans-61" transform="translate(333.300781 0)"/>
     <use xlink:href="#DejaVuSans-74" transform="translate(394.580078 0)"/>
     <use xlink:href="#DejaVuSans-69" transform="translate(433.789062 0)"/>
     <use xlink:href="#DejaVuSans-6f" transform="translate(461.572266 0)"/>
     <use xlink:href="#DejaVuSans-6e" transform="translate(522.753906 0)"/>
     <use xlink:href="#DejaVuSans-20" transform="translate(586.132812 0)"/>
     <use xlink:href="#DejaVuSans-20" transform="translate(617.919922 0)"/>
     <use xlink:href="#DejaVuSans-31" transform="translate(649.707031 0)"/>
     <use xlink:href="#DejaVuSans-30" transform="translate(713.330078 0)"/>
     <use xlink:href="#DejaVuSans-2e" transform="translate(776.953125 0)"/>
     <use xlink:href="#DejaVuSans-30" transform="translate(808.740234 0)"/>
     <use xlink:href="#DejaVuSans-2e" transform="translate(872.363281 0)"/>
     <use xlink:href="#DejaVuSans-33" transform="translate(904.150391 0)"/>
     <use xlink:href="#DejaVuSans-2e" transform="translate(967.773438 0)"/>
     <use xlink:href="#DejaVuSans-31" transform="translate(999.560547 0)"/>
     <use xlink:href="#DejaVuSans-30" transform="translate(1063.183594 0)"/>
    </g>
   </g>
   <g id="text_12">
    <!-- CVE-2020-1111  CVSS 9.0 -->
    <g transform="translate(506.868507 123.077949) scale(0.08 -0.08)">
     <use xlink:href="#DejaVuSans-43"/>
     <use xlink:href="#DejaVuSans-56" transform="translate(69.824219 0)"/>
     <use xlink:href="#DejaVuSans-45" transform="translate(138.232422 0)"/>
     <use xlink:href="#DejaVuSans-2d" transform="translate(201.416016 0)"/>
     <use xlink:href="#DejaVuSans-32" transform="translate(237.5 0)"/>
     <use xlink:href="#DejaVuSans-30" transform="translate(301.123047 0)"/>
     <use xlink:href="#DejaVuSans-32" transform="translate(364.746094 0)"/>
     <use xlink:href="#DejaVuSans-30" transform="translate(428.369141 0)"/>
     <use xlink:href="#DejaVuSans-2d" transform="translate(491.992188 0)"/>
     <use xlink:href="#DejaVuSans-31" transform="translate(528.076172 0)"/>
     <use xlink:href="#DejaVuSans-31" transform="translate(591.699219 0)"/>
     <use xlink:href="#DejaVuSans-31" transform="translate(655.322266 0)"/>
     <use xlink:href="#DejaVuSans-31" transform="translate(718.945312 0)"/>
     <use xlink:href="#DejaVuSans-20" transform="translate(782.568359 0)"/>
     <use xlink:href="#DejaVuSans-20" transform="translate(814.355469 0)"/>
     <use xlink:href="#DejaVuSans-43" transform="translate(846.142578 0)"/>
     <use xlink:href="#DejaVuSans-56" transform="translate(915.966797 0)"/>
     <use xlink:href="#DejaVuSans-53" transform="translate(984.375 0)"/>
     <use xlink:href="#DejaVuSans-53" transform="translate(1047.851562 0)"/>
     <use xlink:href="#DejaVuSans-20" transform="translate(1111.328125 0)"/>
     <use xlink:href="#DejaVuSans-39" transform="translate(1143.115234 0)"/>
     <use xlink:href="#DejaVuSans-2e" transform="translate(1206.738281 0)"/>
     <use xlink:href="#DejaVuSans-30" transform="translate(1238.525391 0)"/>
    </g>
   </g>
   <g id="text_13">
    <g id="patch_34">
     <path d="M 852.822133 190.418709 
L 912.29479 190.418709 
Q 912.99479 190.418709 912.99479 189.718709 
L 912.99479 182.749334 
Q 912.99479 182.049334 912.29479 182.049334 
L 852.822133 182.049334 
Q 852.122133 182.049334 852.122133 182.749334 
L 852.122133 189.718709 
Q 852.122133 190.418709 852.822133 190.418709 
z
" style="fill: #ffffff; opacity: 0.6"/>
    </g>
    <!-- has_vulnerability -->
    <g style="fill: #333333" transform="translate(852.822133 188.068241) scale(0.07 -0.07)">
     <defs>
      <path id="DejaVuSans-68" d="M 3513 2113 
L 3513 0 
L 2938 0 
L 2938 2094 
Q 2938 2591 2744 2837 
Q 2550 3084 2163 3084 
Q 1697 3084 1428 2787 
Q 1159 2491 1159 1978 
L 1159 0 
L 581 0 
L 581 4863 
L 1159 4863 
L 1159 2956 
Q 1366 3272 1645 3428 
Q 1925 3584 2291 3584 
Q 2894 3584 3203 3211 
Q 3513 2838 3513 2113 
z
" transform="scale(0.015625)"/>
      <path id="DejaVuSans-75" d="M 544 1381 
L 544 3500 
L 1119 3500 
L 1119 1403 
Q 1119 906 1312 657 
Q 1506 409 1894 409 
Q 2359 409 2629 706 
Q 2900 1003 2900 1516 
L 2900 3500 
L 3475 3500 
L 3475 0 
L 2900 0 
L 2900 538 
Q 2691 219 2414 64 
Q 2138 -91 1772 -91 
Q 1169 -91 856 284 
Q 544 659 544 1381 
z
M 1991 3584 
L 1991 3584 
z
" transform="scale(0.015625)"/>
     </defs>
     <use xlink:href="#DejaVuSans-68"/>
     <use xlink:href="#DejaVuSans-61" transform="translate(63.378906 0)"/>
     <use xlink:href="#DejaVuSans-73" transform="translate(124.658203 0)"/>
     <use xlink:href="#DejaVuSans-5f" transform="translate(176.757812 0)"/>
     <use xlink:href="#DejaVuSans-76" transform="translate(226.757812 0)"/>
     <use xlink:href="#DejaVuSans-75" transform="translate(285.9375 0)"/>
     <use xlink:href="#DejaVuSans-6c" transform="translate(349.316406 0)"/>
     <use xlink:href="#DejaVuSans-6e" transform="translate(377.099609 0)"/>
     <use xlink:href="#DejaVuSans-65" transform="translate(440.478516 0)"/>
     <use xlink:href="#DejaVuSans-72" transform="translate(502.001953 0)"/>
     <use xlink:href="#DejaVuSans-61" transform="translate(543.115234 0)"/>
     <use xlink:href="#DejaVuSans-62" transform="translate(604.394531 0)"/>
     <use xlink:href="#DejaVuSans-69" transform="translate(667.871094 0)"/>
     <use xlink:href="#DejaVuSans-6c" transform="translate(695.654297 0)"/>
     <use xlink:href="#DejaVuSans-69" transform="translate(723.4375 0)"/>
     <use xlink:href="#DejaVuSans-74" transform="translate(751.220703 0)"/>
     <use xlink:href="#DejaVuSans-79" transform="translate(790.429688 0)"/>
    </g>
   </g>
   <g id="text_14">
    <g id="patch_35">
     <path d="M 633.443129 187.038726 
L 680.62641 187.038726 
Q 681.32641 187.038726 681.32641 186.338726 
L 681.32641 179.369351 
Q 681.32641 178.669351 680.62641 178.669351 
L 633.443129 178.669351 
Q 632.743129 178.669351 632.743129 179.369351 
L 632.743129 186.338726 
Q 632.743129 187.038726 633.443129 187.038726 
z
" style="fill: #ffffff; opacity: 0.6"/>
    </g>
    <!-- connected_to -->
    <g style="fill: #333333" transform="translate(633.443129 184.688257) scale(0.07 -0.07)">
     <defs>
      <path id="DejaVuSans-63" d="M 3122 3366 
L 3122 2828 
Q 2878 2963 2633 3030 
Q 2388 3097 2138 3097 
Q 1578 3097 1268 2742 
Q 959 2388 959 1747 
Q 959 1106 1268 751 
Q 1578 397 2138 397 
Q 2388 397 2633 464 
Q 2878 531 3122 666 
L 3122 134 
Q 2881 22 2623 -34 
Q 2366 -91 2075 -91 
Q 1284 -91 818 406 
Q 353 903 353 1747 
Q 353 2603 823 3093 
Q 1294 3584 2113 3584 
Q 2378 3584 2631 3529 
Q 2884 3475 3122 3366 
z
" transform="scale(0.015625)"/>
     </defs>
     <use xlink:href="#DejaVuSans-63"/>
     <use xlink:href="#DejaVuSans-6f" transform="translate(54.980469 0)"/>
     <use xlink:href="#DejaVuSans-6e" transform="translate(116.162109 0)"/>
     <use xlink:href="#DejaVuSans-6e" transform="translate(179.541016 0)"/>
     <use xlink:href="#DejaVuSans-65" transform="translate(242.919922 0)"/>
     <use xlink:href="#DejaVuSans-63" transform="translate(304.443359 0)"/>
     <use xlink:href="#DejaVuSans-74" transform="translate(359.423828 0)"/>
     <use xlink:href="#DejaVuSans-65" transform="translate(398.632812 0)"/>
     <use xlink:href="#DejaVuSans-64" transform="translate(460.15625 0)"/>
     <use xlink:href="#DejaVuSans-5f" transform="translate(523.632812 0)"/>
     <use xlink:href="#DejaVuSans-74" transform="translate(573.632812 0)"/>
     <use xlink:href="#DejaVuSans-6f" transform="translate(612.841797 0)"/>
    </g>
   </g>
   <g id="text_15">
    <g id="patch_36">
     <path d="M 439.127474 169.164065 
L 498.60013 169.164065 
Q 499.30013 169.164065 499.30013 168.464065 
L 499.30013 161.49469 
Q 499.30013 160.79469 498.60013 160.79469 
L 439.127474 160.79469 
Q 438.427474 160.79469 438.427474 161.49469 
L 438.427474 168.464065 
Q 438.427474 169.164065 439.127474 169.164065 
z
" style="fill: #ffffff; opacity: 0.6"/>
    </g>
    <!-- has_vulnerability -->
    <g style="fill: #333333" transform="translate(439.127474 166.813596) scale(0.07 -0.07)">
     <use xlink:href="#DejaVuSans-68"/>
     <use xlink:href="#DejaVuSans-61" transform="translate(63.378906 0)"/>
     <use xlink:href="#DejaVuSans-73" transform="translate(124.658203 0)"/>
     <use xlink:href="#DejaVuSans-5f" transform="translate(176.757812 0)"/>
     <use xlink:href="#DejaVuSans-76" transform="translate(226.757812 0)"/>
     <use xlink:href="#DejaVuSans-75" transform="translate(285.9375 0)"/>
     <use xlink:href="#DejaVuSans-6c" transform="translate(349.316406 0)"/>
     <use xlink:href="#DejaVuSans-6e" transform="translate(377.099609 0)"/>
     <use xlink:href="#DejaVuSans-65" transform="translate(440.478516 0)"/>
     <use xlink:href="#DejaVuSans-72" transform="translate(502.001953 0)"/>
     <use xlink:href="#DejaVuSans-61" transform="translate(543.115234 0)"/>
     <use xlink:href="#DejaVuSans-62" transform="translate(604.394531 0)"/>
     <use xlink:href="#DejaVuSans-69" transform="translate(667.871094 0)"/>
     <use xlink:href="#DejaVuSans-6c" transform="translate(695.654297 0)"/>
     <use xlink:href="#DejaVuSans-69" transform="translate(723.4375 0)"/>
     <use xlink:href="#DejaVuSans-74" transform="translate(751.220703 0)"/>
     <use xlink:href="#DejaVuSans-79" transform="translate(790.429688 0)"/>
    </g>
   </g>
   <g id="text_16">
    <g id="patch_37">
     <path d="M 543.286313 167.012029 
L 590.469594 167.012029 
Q 591.169594 167.012029 591.169594 166.312029 
L 591.169594 159.342654 
Q 591.169594 158.642654 590.469594 158.642654 
L 543.286313 158.642654 
Q 542.586313 158.642654 542.586313 159.342654 
L 542.586313 166.312029 
Q 542.586313 167.012029 543.286313 167.012029 
z
" style="fill: #ffffff; opacity: 0.6"/>
    </g>
    <!-- connected_to -->
    <g style="fill: #333333" transform="translate(543.286313 164.66156) scale(0.07 -0.07)">
     <use xlink:href="#DejaVuSans-63"/>
     <use xlink:href="#DejaVuSans-6f" transform="translate(54.980469 0)"/>
     <use xlink:href="#DejaVuSans-6e" transform="translate(116.162109 0)"/>
     <use xlink:href="#DejaVuSans-6e" transform="translate(179.541016 0)"/>
     <use xlink:href="#DejaVuSans-65" transform="translate(242.919922 0)"/>
     <use xlink:href="#DejaVuSans-63" transform="translate(304.443359 0)"/>
     <use xlink:href="#DejaVuSans-74" transform="translate(359.423828 0)"/>
     <use xlink:href="#DejaVuSans-65" transform="translate(398.632812 0)"/>
     <use xlink:href="#DejaVuSans-64" transform="translate(460.15625 0)"/>
     <use xlink:href="#DejaVuSans-5f" transform="translate(523.632812 0)"/>
     <use xlink:href="#DejaVuSans-74" transform="translate(573.632812 0)"/>
     <use xlink:href="#DejaVuSans-6f" transform="translate(612.841797 0)"/>
    </g>
   </g>
   <g id="text_17">
    <g id="patch_38">
     <path d="M 516.044623 245.068809 
L 563.227904 245.068809 
Q 563.927904 245.068809 563.927904 244.368809 
L 563.927904 237.399434 
Q 563.927904 236.699434 563.227904 236.699434 
L 516.044623 236.699434 
Q 515.344623 236.699434 515.344623 237.399434 
L 515.344623 244.368809 
Q 515.344623 245.068809 516.044623 245.068809 
z
" style="fill: #ffffff; opacity: 0.6"/>
    </g>
    <!-- connected_to -->
    <g style="fill: #333333" transform="translate(516.044623 242.71834) scale(0.07 -0.07)">
     <use xlink:href="#DejaVuSans-63"/>
     <use xlink:href="#DejaVuSans-6f" transform="translate(54.980469 0)"/>
     <use xlink:href="#DejaVuSans-6e" transform="translate(116.162109 0)"/>
     <use xlink:href="#DejaVuSans-6e" transform="translate(179.541016 0)"/>
     <use xlink:href="#DejaVuSans-65" transform="translate(242.919922 0)"/>
     <use xlink:href="#DejaVuSans-63" transform="translate(304.443359 0)"/>
     <use xlink:href="#DejaVuSans-74" transform="translate(359.423828 0)"/>
     <use xlink:href="#DejaVuSans-65" transform="translate(398.632812 0)"/>
     <use xlink:href="#DejaVuSans-64" transform="translate(460.15625 0)"/>
     <use xlink:href="#DejaVuSans-5f" transform="translate(523.632812 0)"/>
     <use xlink:href="#DejaVuSans-74" transform="translate(573.632812 0)"/>
     <use xlink:href="#DejaVuSans-6f" transform="translate(612.841797 0)"/>
    </g>
   </g>
   <g id="text_18">
    <g id="patch_39">
     <path d="M 589.675094 105.147734 
L 649.14775 105.147734 
Q 649.84775 105.147734 649.84775 104.447734 
L 649.84775 97.478359 
Q 649.84775 96.778359 649.14775 96.778359 
L 589.675094 96.778359 
Q 588.975094 96.778359 588.975094 97.478359 
L 588.975094 104.447734 
Q 588.975094 105.147734 589.675094 105.147734 
z
" style="fill: #ffffff; opacity: 0.6"/>
    </g>
    <!-- has_vulnerability -->
    <g style="fill: #333333" transform="translate(589.675094 102.797265) scale(0.07 -0.07)">
     <use xlink:href="#DejaVuSans-68"/>
     <use xlink:href="#DejaVuSans-61" transform="translate(63.378906 0)"/>
     <use xlink:href="#DejaVuSans-73" transform="translate(124.658203 0)"/>
     <use xlink:href="#DejaVuSans-5f" transform="translate(176.757812 0)"/>
     <use xlink:href="#DejaVuSans-76" transform="translate(226.757812 0)"/>
     <use xlink:href="#DejaVuSans-75" transform="translate(285.9375 0)"/>
     <use xlink:href="#DejaVuSans-6c" transform="translate(349.316406 0)"/>
     <use xlink:href="#DejaVuSans-6e" transform="translate(377.099609 0)"/>
     <use xlink:href="#DejaVuSans-65" transform="translate(440.478516 0)"/>
     <use xlink:href="#DejaVuSans-72" transform="translate(502.001953 0)"/>
     <use xlink:href="#DejaVuSans-61" transform="translate(543.115234 0)"/>
     <use xlink:href="#DejaVuSans-62" transform="translate(604.394531 0)"/>
     <use xlink:href="#DejaVuSans-69" transform="translate(667.871094 0)"/>
     <use xlink:href="#DejaVuSans-6c" transform="translate(695.654297 0)"/>
     <use xlink:href="#DejaVuSans-69" transform="translate(723.4375 0)"/>
     <use xlink:href="#DejaVuSans-74" transform="translate(751.220703 0)"/>
     <use xlink:href="#DejaVuSans-79" transform="translate(790.429688 0)"/>
    </g>
   </g>
   <g id="text_19">
    <g id="patch_40">
     <path d="M 588.789961 227.007466 
L 635.973242 227.007466 
Q 636.673242 227.007466 636.673242 226.307466 
L 636.673242 219.338091 
Q 636.673242 218.638091 635.973242 218.638091 
L 588.789961 218.638091 
Q 588.089961 218.638091 588.089961 219.338091 
L 588.089961 226.307466 
Q 588.089961 227.007466 588.789961 227.007466 
z
" style="fill: #ffffff; opacity: 0.6"/>
    </g>
    <!-- connected_to -->
    <g style="fill: #333333" transform="translate(588.789961 224.656998) scale(0.07 -0.07)">
     <use xlink:href="#DejaVuSans-63"/>
     <use xlink:href="#DejaVuSans-6f" transform="translate(54.980469 0)"/>
     <use xlink:href="#DejaVuSans-6e" transform="translate(116.162109 0)"/>
     <use xlink:href="#DejaVuSans-6e" transform="translate(179.541016 0)"/>
     <use xlink:href="#DejaVuSans-65" transform="translate(242.919922 0)"/>
     <use xlink:href="#DejaVuSans-63" transform="translate(304.443359 0)"/>
     <use xlink:href="#DejaVuSans-74" transform="translate(359.423828 0)"/>
     <use xlink:href="#DejaVuSans-65" transform="translate(398.632812 0)"/>
     <use xlink:href="#DejaVuSans-64" transform="translate(460.15625 0)"/>
     <use xlink:href="#DejaVuSans-5f" transform="translate(523.632812 0)"/>
     <use xlink:href="#DejaVuSans-74" transform="translate(573.632812 0)"/>
     <use xlink:href="#DejaVuSans-6f" transform="translate(612.841797 0)"/>
    </g>
   </g>
   <g id="text_20">
    <g id="patch_41">
     <path d="M 695.692573 233.189729 
L 742.875854 233.189729 
Q 743.575854 233.189729 743.575854 232.489729 
L 743.575854 225.520354 
Q 743.575854 224.820354 742.875854 224.820354 
L 695.692573 224.820354 
Q 694.992573 224.820354 694.992573 225.520354 
L 694.992573 232.489729 
Q 694.992573 233.189729 695.692573 233.189729 
z
" style="fill: #ffffff; opacity: 0.6"/>
    </g>
    <!-- connected_to -->
    <g style="fill: #333333" transform="translate(695.692573 230.83926) scale(0.07 -0.07)">
     <use xlink:href="#DejaVuSans-63"/>
     <use xlink:href="#DejaVuSans-6f" transform="translate(54.980469 0)"/>
     <use xlink:href="#DejaVuSans-6e" transform="translate(116.162109 0)"/>
     <use xlink:href="#DejaVuSans-6e" transform="translate(179.541016 0)"/>
     <use xlink:href="#DejaVuSans-65" transform="translate(242.919922 0)"/>
     <use xlink:href="#DejaVuSans-63" transform="translate(304.443359 0)"/>
     <use xlink:href="#DejaVuSans-74" transform="translate(359.423828 0)"/>
     <use xlink:href="#DejaVuSans-65" transform="translate(398.632812 0)"/>
     <use xlink:href="#DejaVuSans-64" transform="translate(460.15625 0)"/>
     <use xlink:href="#DejaVuSans-5f" transform="translate(523.632812 0)"/>
     <use xlink:href="#DejaVuSans-74" transform="translate(573.632812 0)"/>
     <use xlink:href="#DejaVuSans-6f" transform="translate(612.841797 0)"/>
    </g>
   </g>
   <g id="text_21">
    <g id="patch_42">
     <path d="M 559.677769 338.973406 
L 619.150425 338.973406 
Q 619.850425 338.973406 619.850425 338.273406 
L 619.850425 331.304031 
Q 619.850425 330.604031 619.150425 330.604031 
L 559.677769 330.604031 
Q 558.977769 330.604031 558.977769 331.304031 
L 558.977769 338.273406 
Q 558.977769 338.973406 559.677769 338.973406 
z
" style="fill: #ffffff; opacity: 0.6"/>
    </g>
    <!-- has_vulnerability -->
    <g style="fill: #333333" transform="translate(559.677769 336.622937) scale(0.07 -0.07)">
     <use xlink:href="#DejaVuSans-68"/>
     <use xlink:href="#DejaVuSans-61" transform="translate(63.378906 0)"/>
     <use xlink:href="#DejaVuSans-73" transform="translate(124.658203 0)"/>
     <use xlink:href="#DejaVuSans-5f" transform="translate(176.757812 0)"/>
     <use xlink:href="#DejaVuSans-76" transform="translate(226.757812 0)"/>
     <use xlink:href="#DejaVuSans-75" transform="translate(285.9375 0)"/>
     <use xlink:href="#DejaVuSans-6c" transform="translate(349.316406 0)"/>
     <use xlink:href="#DejaVuSans-6e" transform="translate(377.099609 0)"/>
     <use xlink:href="#DejaVuSans-65" transform="translate(440.478516 0)"/>
     <use xlink:href="#DejaVuSans-72" transform="translate(502.001953 0)"/>
     <use xlink:href="#DejaVuSans-61" transform="translate(543.115234 0)"/>
     <use xlink:href="#DejaVuSans-62" transform="translate(604.394531 0)"/>
     <use xlink:href="#DejaVuSans-69" transform="translate(667.871094 0)"/>
     <use xlink:href="#DejaVuSans-6c" transform="translate(695.654297 0)"/>
     <use xlink:href="#DejaVuSans-69" transform="translate(723.4375 0)"/>
     <use xlink:href="#DejaVuSans-74" transform="translate(751.220703 0)"/>
     <use xlink:href="#DejaVuSans-79" transform="translate(790.429688 0)"/>
    </g>
   </g>
   <g id="text_22">
    <g id="patch_43">
     <path d="M 516.044623 245.068809 
L 563.227904 245.068809 
Q 563.927904 245.068809 563.927904 244.368809 
L 563.927904 237.399434 
Q 563.927904 236.699434 563.227904 236.699434 
L 516.044623 236.699434 
Q 515.344623 236.699434 515.344623 237.399434 
L 515.344623 244.368809 
Q 515.344623 245.068809 516.044623 245.068809 
z
" style="fill: #ffffff; opacity: 0.6"/>
    </g>
    <!-- connected_to -->
    <g style="fill: #333333" transform="translate(516.044623 242.71834) scale(0.07 -0.07)">
     <use xlink:href="#DejaVuSans-63"/>
     <use xlink:href="#DejaVuSans-6f" transform="translate(54.980469 0)"/>
     <use xlink:href="#DejaVuSans-6e" transform="translate(116.162109 0)"/>
     <use xlink:href="#DejaVuSans-6e" transform="translate(179.541016 0)"/>
     <use xlink:href="#DejaVuSans-65" transform="translate(242.919922 0)"/>
     <use xlink:href="#DejaVuSans-63" transform="translate(304.443359 0)"/>
     <use xlink:href="#DejaVuSans-74" transform="translate(359.423828 0)"/>
     <use xlink:href="#DejaVuSans-65" transform="translate(398.632812 0)"/>
     <use xlink:href="#DejaVuSans-64" transform="translate(460.15625 0)"/>
     <use xlink:href="#DejaVuSans-5f" transform="translate(523.632812 0)"/>
     <use xlink:href="#DejaVuSans-74" transform="translate(573.632812 0)"/>
     <use xlink:href="#DejaVuSans-6f" transform="translate(612.841797 0)"/>
    </g>
   </g>
   <g id="text_23">
    <g id="patch_44">
     <path d="M 588.789961 227.007466 
L 635.973242 227.007466 
Q 636.673242 227.007466 636.673242 226.307466 
L 636.673242 219.338091 
Q 636.673242 218.638091 635.973242 218.638091 
L 588.789961 218.638091 
Q 588.089961 218.638091 588.089961 219.338091 
L 588.089961 226.307466 
Q 588.089961 227.007466 588.789961 227.007466 
z
" style="fill: #ffffff; opacity: 0.6"/>
    </g>
    <!-- connected_to -->
    <g style="fill: #333333" transform="translate(588.789961 224.656998) scale(0.07 -0.07)">
     <use xlink:href="#DejaVuSans-63"/>
     <use xlink:href="#DejaVuSans-6f" transform="translate(54.980469 0)"/>
     <use xlink:href="#DejaVuSans-6e" transform="translate(116.162109 0)"/>
     <use xlink:href="#DejaVuSans-6e" transform="translate(179.541016 0)"/>
     <use xlink:href="#DejaVuSans-65" transform="translate(242.919922 0)"/>
     <use xlink:href="#DejaVuSans-63" transform="translate(304.443359 0)"/>
     <use xlink:href="#DejaVuSans-74" transform="translate(359.423828 0)"/>
     <use xlink:href="#DejaVuSans-65" transform="translate(398.632812 0)"/>
     <use xlink:href="#DejaVuSans-64" transform="translate(460.15625 0)"/>
     <use xlink:href="#DejaVuSans-5f" transform="translate(523.632812 0)"/>
     <use xlink:href="#DejaVuSans-74" transform="translate(573.632812 0)"/>
     <use xlink:href="#DejaVuSans-6f" transform="translate(612.841797 0)"/>
    </g>
   </g>
   <g id="text_24">
    <g id="patch_45">
     <path d="M 809.686307 317.346381 
L 869.158964 317.346381 
Q 869.858964 317.346381 869.858964 316.646381 
L 869.858964 309.677006 
Q 869.858964 308.977006 869.158964 308.977006 
L 809.686307 308.977006 
Q 808.986307 308.977006 808.986307 309.677006 
L 808.986307 316.646381 
Q 808.986307 317.346381 809.686307 317.346381 
z
" style="fill: #ffffff; opacity: 0.6"/>
    </g>
    <!-- has_vulnerability -->
    <g style="fill: #333333" transform="translate(809.686307 314.995912) scale(0.07 -0.07)">
     <use xlink:href="#DejaVuSans-68"/>
     <use xlink:href="#DejaVuSans-61" transform="translate(63.378906 0)"/>
     <use xlink:href="#DejaVuSans-73" transform="translate(124.658203 0)"/>
     <use xlink:href="#DejaVuSans-5f" transform="translate(176.757812 0)"/>
     <use xlink:href="#DejaVuSans-76" transform="translate(226.757812 0)"/>
     <use xlink:href="#DejaVuSans-75" transform="translate(285.9375 0)"/>
     <use xlink:href="#DejaVuSans-6c" transform="translate(349.316406 0)"/>
     <use xlink:href="#DejaVuSans-6e" transform="translate(377.099609 0)"/>
     <use xlink:href="#DejaVuSans-65" transform="translate(440.478516 0)"/>
     <use xlink:href="#DejaVuSans-72" transform="translate(502.001953 0)"/>
     <use xlink:href="#DejaVuSans-61" transform="translate(543.115234 0)"/>
     <use xlink:href="#DejaVuSans-62" transform="translate(604.394531 0)"/>
     <use xlink:href="#DejaVuSans-69" transform="translate(667.871094 0)"/>
     <use xlink:href="#DejaVuSans-6c" transform="translate(695.654297 0)"/>
     <use xlink:href="#DejaVuSans-69" transform="translate(723.4375 0)"/>
     <use xlink:href="#DejaVuSans-74" transform="translate(751.220703 0)"/>
     <use xlink:href="#DejaVuSans-79" transform="translate(790.429688 0)"/>
    </g>
   </g>
   <g id="text_25">
    <g id="patch_46">
     <path d="M 668.450883 311.246509 
L 715.634164 311.246509 
Q 716.334164 311.246509 716.334164 310.546509 
L 716.334164 303.577134 
Q 716.334164 302.877134 715.634164 302.877134 
L 668.450883 302.877134 
Q 667.750883 302.877134 667.750883 303.577134 
L 667.750883 310.546509 
Q 667.750883 311.246509 668.450883 311.246509 
z
" style="fill: #ffffff; opacity: 0.6"/>
    </g>
    <!-- connected_to -->
    <g style="fill: #333333" transform="translate(668.450883 308.89604) scale(0.07 -0.07)">
     <use xlink:href="#DejaVuSans-63"/>
     <use xlink:href="#DejaVuSans-6f" transform="translate(54.980469 0)"/>
     <use xlink:href="#DejaVuSans-6e" transform="translate(116.162109 0)"/>
     <use xlink:href="#DejaVuSans-6e" transform="translate(179.541016 0)"/>
     <use xlink:href="#DejaVuSans-65" transform="translate(242.919922 0)"/>
     <use xlink:href="#DejaVuSans-63" transform="translate(304.443359 0)"/>
     <use xlink:href="#DejaVuSans-74" transform="translate(359.423828 0)"/>
     <use xlink:href="#DejaVuSans-65" transform="translate(398.632812 0)"/>
     <use xlink:href="#DejaVuSans-64" transform="translate(460.15625 0)"/>
     <use xlink:href="#DejaVuSans-5f" transform="translate(523.632812 0)"/>
     <use xlink:href="#DejaVuSans-74" transform="translate(573.632812 0)"/>
     <use xlink:href="#DejaVuSans-6f" transform="translate(612.841797 0)"/>
    </g>
   </g>
   <g id="text_26">
    <g id="patch_47">
     <path d="M 537.156726 149.872404 
L 596.629383 149.872404 
Q 597.329383 149.872404 597.329383 149.172404 
L 597.329383 142.203029 
Q 597.329383 141.503029 596.629383 141.503029 
L 537.156726 141.503029 
Q 536.456726 141.503029 536.456726 142.203029 
L 536.456726 149.172404 
Q 536.456726 149.872404 537.156726 149.872404 
z
" style="fill: #ffffff; opacity: 0.6"/>
    </g>
    <!-- has_vulnerability -->
    <g style="fill: #333333" transform="translate(537.156726 147.521935) scale(0.07 -0.07)">
     <use xlink:href="#DejaVuSans-68"/>
     <use xlink:href="#DejaVuSans-61" transform="translate(63.378906 0)"/>
     <use xlink:href="#DejaVuSans-73" transform="translate(124.658203 0)"/>
     <use xlink:href="#DejaVuSans-5f" transform="translate(176.757812 0)"/>
     <use xlink:href="#DejaVuSans-76" transform="translate(226.757812 0)"/>
     <use xlink:href="#DejaVuSans-75" transform="translate(285.9375 0)"/>
     <use xlink:href="#DejaVuSans-6c" transform="translate(349.316406 0)"/>
     <use xlink:href="#DejaVuSans-6e" transform="translate(377.099609 0)"/>
     <use xlink:href="#DejaVuSans-65" transform="translate(440.478516 0)"/>
     <use xlink:href="#DejaVuSans-72" transform="translate(502.001953 0)"/>
     <use xlink:href="#DejaVuSans-61" transform="translate(543.115234 0)"/>
     <use xlink:href="#DejaVuSans-62" transform="translate(604.394531 0)"/>
     <use xlink:href="#DejaVuSans-69" transform="translate(667.871094 0)"/>
     <use xlink:href="#DejaVuSans-6c" transform="translate(695.654297 0)"/>
     <use xlink:href="#DejaVuSans-69" transform="translate(723.4375 0)"/>
     <use xlink:href="#DejaVuSans-74" transform="translate(751.220703 0)"/>
     <use xlink:href="#DejaVuSans-79" transform="translate(790.429688 0)"/>
    </g>
   </g>
   <g id="text_27">
    <g id="patch_48">
     <path d="M 556.393991 239.876959 
L 603.577272 239.876959 
Q 604.277272 239.876959 604.277272 239.176959 
L 604.277272 232.207584 
Q 604.277272 231.507584 603.577272 231.507584 
L 556.393991 231.507584 
Q 555.693991 231.507584 555.693991 232.207584 
L 555.693991 239.176959 
Q 555.693991 239.876959 556.393991 239.876959 
z
" style="fill: #ffffff; opacity: 0.6"/>
    </g>
    <!-- connected_to -->
    <g style="fill: #333333" transform="translate(556.393991 237.52649) scale(0.07 -0.07)">
     <use xlink:href="#DejaVuSans-63"/>
     <use xlink:href="#DejaVuSans-6f" transform="translate(54.980469 0)"/>
     <use xlink:href="#DejaVuSans-6e" transform="translate(116.162109 0)"/>
     <use xlink:href="#DejaVuSans-6e" transform="translate(179.541016 0)"/>
     <use xlink:href="#DejaVuSans-65" transform="translate(242.919922 0)"/>
     <use xlink:href="#DejaVuSans-63" transform="translate(304.443359 0)"/>
     <use xlink:href="#DejaVuSans-74" transform="translate(359.423828 0)"/>
     <use xlink:href="#DejaVuSans-65" transform="translate(398.632812 0)"/>
     <use xlink:href="#DejaVuSans-64" transform="translate(460.15625 0)"/>
     <use xlink:href="#DejaVuSans-5f" transform="translate(523.632812 0)"/>
     <use xlink:href="#DejaVuSans-74" transform="translate(573.632812 0)"/>
     <use xlink:href="#DejaVuSans-6f" transform="translate(612.841797 0)"/>
    </g>
   </g>
   <g id="text_28">
    <!-- Attack Graph (Static View) -->
    <g transform="translate(697.334456 22.32) scale(0.16 -0.16)">
     <defs>
      <path id="DejaVuSans-41" d="M 2188 4044 
L 1331 1722 
L 3047 1722 
L 2188 4044 
z
M 1831 4666 
L 2547 4666 
L 4325 0 
L 3669 0 
L 3244 1197 
L 1141 1197 
L 716 0 
L 50 0 
L 1831 4666 
z
" transform="scale(0.015625)"/>
      <path id="DejaVuSans-47" d="M 3809 666 
L 3809 1919 
L 2778 1919 
L 2778 2438 
L 4434 2438 
L 4434 434 
Q 4069 175 3628 42 
Q 3188 -91 2688 -91 
Q 1594 -91 976 548 
Q 359 1188 359 2328 
Q 359 3472 976 4111 
Q 1594 4750 2688 4750 
Q 3144 4750 3555 4637 
Q 3966 4525 4313 4306 
L 4313 3634 
Q 3963 3931 3569 4081 
Q 3175 4231 2741 4231 
Q 1884 4231 1454 3753 
Q 1025 3275 1025 2328 
Q 1025 1384 1454 906 
Q 1884 428 2741 428 
Q 3075 428 3337 486 
Q 3600 544 3809 666 
z
" transform="scale(0.015625)"/>
      <path id="DejaVuSans-28" d="M 1984 4856 
Q 1566 4138 1362 3434 
Q 1159 2731 1159 2009 
Q 1159 1288 1364 580 
Q 1569 -128 1984 -844 
L 1484 -844 
Q 1016 -109 783 600 
Q 550 1309 550 2009 
Q 550 2706 781 3412 
Q 1013 4119 1484 4856 
L 1984 4856 
z
" transform="scale(0.015625)"/>
      <path id="DejaVuSans-29" d="M 513 4856 
L 1013 4856 
Q 1481 4119 1714 3412 
Q 1947 2706 1947 2009 
Q 1947 1309 1714 600 
Q 1481 -109 1013 -844 
L 513 -844 
Q 928 -128 1133 580 
Q 1338 1288 1338 2009 
Q 1338 2731 1133 3434 
Q 928 4138 513 4856 
z
" transform="scale(0.015625)"/>
     </defs>
     <use xlink:href="#DejaVuSans-41"/>
     <use xlink:href="#DejaVuSans-74" transform="translate(66.658203 0)"/>
     <use xlink:href="#DejaVuSans-74" transform="translate(105.867188 0)"/>
     <use xlink:href="#DejaVuSans-61" transform="translate(145.076172 0)"/>
     <use xlink:href="#DejaVuSans-63" transform="translate(206.355469 0)"/>
     <use xlink:href="#DejaVuSans-6b" transform="translate(261.335938 0)"/>
     <use xlink:href="#DejaVuSans-20" transform="translate(319.246094 0)"/>
     <use xlink:href="#DejaVuSans-47" transform="translate(351.033203 0)"/>
     <use xlink:href="#DejaVuSans-72" transform="translate(428.523438 0)"/>
     <use xlink:href="#DejaVuSans-61" transform="translate(469.636719 0)"/>
     <use xlink:href="#DejaVuSans-70" transform="translate(530.916016 0)"/>
     <use xlink:href="#DejaVuSans-68" transform="translate(594.392578 0)"/>
     <use xlink:href="#DejaVuSans-20" transform="translate(657.771484 0)"/>
     <use xlink:href="#DejaVuSans-28" transform="translate(689.558594 0)"/>
     <use xlink:href="#DejaVuSans-53" transform="translate(728.572266 0)"/>
     <use xlink:href="#DejaVuSans-74" transform="translate(792.048828 0)"/>
     <use xlink:href="#DejaVuSans-61" transform="translate(831.257812 0)"/>
     <use xlink:href="#DejaVuSans-74" transform="translate(892.537109 0)"/>
     <use xlink:href="#DejaVuSans-69" transform="translate(931.746094 0)"/>
     <use xlink:href="#DejaVuSans-63" transform="translate(959.529297 0)"/>
     <use xlink:href="#DejaVuSans-20" transform="translate(1014.509766 0)"/>
     <use xlink:href="#DejaVuSans-56" transform="translate(1046.296875 0)"/>
     <use xlink:href="#DejaVuSans-69" transform="translate(1112.455078 0)"/>
     <use xlink:href="#DejaVuSans-65" transform="translate(1140.238281 0)"/>
     <use xlink:href="#DejaVuSans-77" transform="translate(1201.761719 0)"/>
     <use xlink:href="#DejaVuSans-29" transform="translate(1283.548828 0)"/>
    </g>
   </g>
   <g id="legend_1">
    <g id="patch_49">
     <path d="M 785.708125 110.266875 
L 938.18 110.266875 
Q 940.18 110.266875 940.18 108.266875 
L 940.18 35.32 
Q 940.18 33.32 938.18 33.32 
L 785.708125 33.32 
Q 783.708125 33.32 783.708125 35.32 
L 783.708125 108.266875 
Q 783.708125 110.266875 785.708125 110.266875 
z
" style="fill: #ffffff; opacity: 0.8; stroke: #cccccc; stroke-linejoin: miter"/>
    </g>
    <g id="patch_50">
     <path d="M 787.708125 44.918437 
L 807.708125 44.918437 
L 807.708125 37.918437 
L 787.708125 37.918437 
z
" style="fill: #d32f2f; stroke: #333333; stroke-linejoin: miter"/>
    </g>
    <g id="text_29">
     <!-- Asset (exploit available) -->
     <g transform="translate(815.708125 44.918437) scale(0.1 -0.1)">
      <defs>
       <path id="DejaVuSans-78" d="M 3513 3500 
L 2247 1797 
L 3578 0 
L 2900 0 
L 1881 1375 
L 863 0 
L 184 0 
L 1544 1831 
L 300 3500 
L 978 3500 
L 1906 2253 
L 2834 3500 
L 3513 3500 
z
" transform="scale(0.015625)"/>
      </defs>
      <use xlink:href="#DejaVuSans-41"/>
      <use xlink:href="#DejaVuSans-73" transform="translate(68.408203 0)"/>
      <use xlink:href="#DejaVuSans-73" transform="translate(120.507812 0)"/>
      <use xlink:href="#DejaVuSans-65" transform="translate(172.607422 0)"/>
      <use xlink:href="#DejaVuSans-74" transform="translate(234.130859 0)"/>
      <use xlink:href="#DejaVuSans-20" transform="translate(273.339844 0)"/>
      <use xlink:href="#DejaVuSans-28" transform="translate(305.126953 0)"/>
      <use xlink:href="#DejaVuSans-65" transform="translate(344.140625 0)"/>
      <use xlink:href="#DejaVuSans-78" transform="translate(403.914062 0)"/>
      <use xlink:href="#DejaVuSans-70" transform="translate(463.09375 0)"/>
      <use xlink:href="#DejaVuSans-6c" transform="translate(526.570312 0)"/>
      <use xlink:href="#DejaVuSans-6f" transform="translate(554.353516 0)"/>
      <use xlink:href="#DejaVuSans-69" transform="translate(615.535156 0)"/>
      <use xlink:href="#DejaVuSans-74" transform="translate(643.318359 0)"/>
      <use xlink:href="#DejaVuSans-20" transform="translate(682.527344 0)"/>
      <use xlink:href="#DejaVuSans-61" transform="translate(714.314453 0)"/>
      <use xlink:href="#DejaVuSans-76" transform="translate(775.59375 0)"/>
      <use xlink:href="#DejaVuSans-61" transform="translate(834.773438 0)"/>
      <use xlink:href="#DejaVuSans-69" transform="translate(896.052734 0)"/>
      <use xlink:href="#DejaVuSans-6c" transform="translate(923.835938 0)"/>
      <use xlink:href="#DejaVuSans-61" transform="translate(951.619141 0)"/>
      <use xlink:href="#DejaVuSans-62" transform="translate(1012.898438 0)"/>
      <use xlink:href="#DejaVuSans-6c" transform="translate(1076.375 0)"/>
      <use xlink:href="#DejaVuSans-65" transform="translate(1104.158203 0)"/>
      <use xlink:href="#DejaVuSans-29" transform="translate(1165.681641 0)"/>
     </g>
    </g>
    <g id="patch_51">
     <path d="M 787.708125 59.596563 
L 807.708125 59.596563 
L 807.708125 52.596563 
L 787.708125 52.596563 
z
" style="fill: #2e7d32; stroke: #333333; stroke-linejoin: miter"/>
    </g>
    <g id="text_30">
     <!-- Asset (no exploit) -->
     <g transform="translate(815.708125 59.596563) scale(0.1 -0.1)">
      <use xlink:href="#DejaVuSans-41"/>
      <use xlink:href="#DejaVuSans-73" transform="translate(68.408203 0)"/>
      <use xlink:href="#DejaVuSans-73" transform="translate(120.507812 0)"/>
      <use xlink:href="#DejaVuSans-65" transform="translate(172.607422 0)"/>
      <use xlink:href="#DejaVuSans-74" transform="translate(234.130859 0)"/>
      <use xlink:href="#DejaVuSans-20" transform="translate(273.339844 0)"/>
      <use xlink:href="#DejaVuSans-28" transform="translate(305.126953 0)"/>
      <use xlink:href="#DejaVuSans-6e" transform="translate(344.140625 0)"/>
      <use xlink:href="#DejaVuSans-6f" transform="translate(407.519531 0)"/>
      <use xlink:href="#DejaVuSans-20" transform="translate(468.701172 0)"/>
      <use xlink:href="#DejaVuSans-65" transform="translate(500.488281 0)"/>
      <use xlink:href="#DejaVuSans-78" transform="translate(560.261719 0)"/>
      <use xlink:href="#DejaVuSans-70" transform="translate(619.441406 0)"/>
      <use xlink:href="#DejaVuSans-6c" transform="translate(682.917969 0)"/>
      <use xlink:href="#DejaVuSans-6f" transform="translate(710.701172 0)"/>
      <use xlink:href="#DejaVuSans-69" transform="translate(771.882812 0)"/>
      <use xlink:href="#DejaVuSans-74" transform="translate(799.666016 0)"/>
      <use xlink:href="#DejaVuSans-29" transform="translate(838.875 0)"/>
     </g>
    </g>
    <g id="patch_52">
     <path d="M 787.708125 74.274688 
L 807.708125 74.274688 
L 807.708125 67.274688 
L 787.708125 67.274688 
z
" style="fill: #9e9e9e; stroke: #333333; stroke-linejoin: miter"/>
    </g>
    <g id="text_31">
     <!-- Vulnerability -->
     <g transform="translate(815.708125 74.274688) scale(0.1 -0.1)">
      <use xlink:href="#DejaVuSans-56"/>
      <use xlink:href="#DejaVuSans-75" transform="translate(61.658203 0)"/>
      <use xlink:href="#DejaVuSans-6c" transform="translate(125.037109 0)"/>
      <use xlink:href="#DejaVuSans-6e" transform="translate(152.820312 0)"/>
      <use xlink:href="#DejaVuSans-65" transform="translate(216.199219 0)"/>
      <use xlink:href="#DejaVuSans-72" transform="translate(277.722656 0)"/>
      <use xlink:href="#DejaVuSans-61" transform="translate(318.835938 0)"/>
      <use xlink:href="#DejaVuSans-62" transform="translate(380.115234 0)"/>
      <use xlink:href="#DejaVuSans-69" transform="translate(443.591797 0)"/>
      <use xlink:href="#DejaVuSans-6c" transform="translate(471.375 0)"/>
      <use xlink:href="#DejaVuSans-69" transform="translate(499.158203 0)"/>
      <use xlink:href="#DejaVuSans-74" transform="translate(526.941406 0)"/>
      <use xlink:href="#DejaVuSans-79" transform="translate(566.150391 0)"/>
     </g>
    </g>
    <g id="patch_53">
     <path d="M 787.708125 88.952812 
L 807.708125 88.952812 
L 807.708125 81.952812 
L 787.708125 81.952812 
z
" style="fill: #e65100; stroke: #333333; stroke-linejoin: miter"/>
    </g>
    <g id="text_32">
     <!-- has_vulnerability edge -->
     <g transform="translate(815.708125 88.952812) scale(0.1 -0.1)">
      <use xlink:href="#DejaVuSans-68"/>
      <use xlink:href="#DejaVuSans-61" transform="translate(63.378906 0)"/>
      <use xlink:href="#DejaVuSans-73" transform="translate(124.658203 0)"/>
      <use xlink:href="#DejaVuSans-5f" transform="translate(176.757812 0)"/>
      <use xlink:href="#DejaVuSans-76" transform="translate(226.757812 0)"/>
      <use xlink:href="#DejaVuSans-75" transform="translate(285.9375 0)"/>
      <use xlink:href="#DejaVuSans-6c" transform="translate(349.316406 0)"/>
      <use xlink:href="#DejaVuSans-6e" transform="translate(377.099609 0)"/>
      <use xlink:href="#DejaVuSans-65" transform="translate(440.478516 0)"/>
      <use xlink:href="#DejaVuSans-72" transform="translate(502.001953 0)"/>
      <use xlink:href="#DejaVuSans-61" transform="translate(543.115234 0)"/>
      <use xlink:href="#DejaVuSans-62" transform="translate(604.394531 0)"/>
      <use xlink:href="#DejaVuSans-69" transform="translate(667.871094 0)"/>
      <use xlink:href="#DejaVuSans-6c" transform="translate(695.654297 0)"/>
      <use xlink:href="#DejaVuSans-69" transform="translate(723.4375 0)"/>
      <use xlink:href="#DejaVuSans-74" transform="translate(751.220703 0)"/>
      <use xlink:href="#DejaVuSans-79" transform="translate(790.429688 0)"/>
      <use xlink:href="#DejaVuSans-20" transform="translate(849.609375 0)"/>
      <use xlink:href="#DejaVuSans-65" transform="translate(881.396484 0)"/>
      <use xlink:href="#DejaVuSans-64" transform="translate(942.919922 0)"/>
      <use xlink:href="#DejaVuSans-67" transform="translate(1006.396484 0)"/>
      <use xlink:href="#DejaVuSans-65" transform="translate(1069.873047 0)"/>
     </g>
    </g>
    <g id="patch_54">
     <path d="M 787.708125 103.909063 
L 807.708125 103.909063 
L 807.708125 96.909063 
L 787.708125 96.909063 
z
" style="fill: #1976d2; stroke: #333333; stroke-linejoin: miter"/>
    </g>
    <g id="text_33">
     <!-- connected_to edge -->
     <g transform="translate(815.708125 103.909063) scale(0.1 -0.1)">
      <use xlink:href="#DejaVuSans-63"/>
      <use xlink:href="#DejaVuSans-6f" transform="translate(54.980469 0)"/>
      <use xlink:href="#DejaVuSans-6e" transform="translate(116.162109 0)"/>
      <use xlink:href="#DejaVuSans-6e" transform="translate(179.541016 0)"/>
      <use xlink:href="#DejaVuSans-65" transform="translate(242.919922 0)"/>
      <use xlink:href="#DejaVuSans-63" transform="translate(304.443359 0)"/>
      <use xlink:href="#DejaVuSans-74" transform="translate(359.423828 0)"/>
      <use xlink:href="#DejaVuSans-65" transform="translate(398.632812 0)"/>
      <use xlink:href="#DejaVuSans-64" transform="translate(460.15625 0)"/>
      <use xlink:href="#DejaVuSans-5f" transform="translate(523.632812 0)"/>
      <use xlink:href="#DejaVuSans-74" transform="translate(573.632812 0)"/>
      <use xlink:href="#DejaVuSans-6f" transform="translate(612.841797 0)"/>
      <use xlink:href="#DejaVuSans-20" transform="translate(674.023438 0)"/>
      <use xlink:href="#DejaVuSans-65" transform="translate(705.810547 0)"/>
      <use xlink:href="#DejaVuSans-64" transform="translate(767.333984 0)"/>
      <use xlink:href="#DejaVuSans-67" transform="translate(830.810547 0)"/>
      <use xlink:href="#DejaVuSans-65" transform="translate(894.287109 0)"/>
     </g>
    </g>
   </g>
  </g>
 </g>
 <defs>
  <clipPath id="p456c3ae06b">
   <rect x="661.093912" y="28.32" width="284.086088" height="179.315762"/>
  </clipPath>
 </defs>
</svg>
